#N canvas 1 25 1443 997 10;
#N canvas 0 25 1334 955 lights 1;
#N canvas 96 92 896 611 hex 0;
#X obj 133 548 outlet;
#X obj 42 13 inlet;
#X obj 396 293 expr if (int($f1 / 16) <= 9 \, int($f1 / 16) + 48 \,
int($f1 / 16) + 55) \; if ($f1 % 16 <= 9 \, int($f1 % 16) + 48 \, int($f1
% 16) + 55);
#X text 363 435 expr if ($f1 / 16 <= 9 \, int($f1 / 16) + 48 \, int($f1
/ 16) + 55) \; if ($f1 % 16 <= 9 \, int($f1 % 16) + 48 \, int($f1 %
16) + 55);
#X obj 298 185 expr if (int($f1 / 16) <= 9 \, int($f1 / 16) + 48 \,
int($f1 / 16) + 55) \; if ($f1 % 16 <= 9 \, int($f1 % 16) + 48 \, int($f1
% 16) + 55);
#X obj 211 128 expr if (int($f1 / 16) <= 9 \, int($f1 / 16) + 48 \,
int($f1 / 16) + 55) \; if ($f1 % 16 <= 9 \, int($f1 % 16) + 48 \, int($f1
% 16) + 55);
#X obj 763 291 expr if (int($f1 / 16) <= 9 \, int($f1 / 16) + 48 \,
int($f1 / 16) + 55) \; if ($f1 % 16 <= 9 \, int($f1 % 16) + 48 \, int($f1
% 16) + 55);
#X obj 138 473 pack f f f f f f f f;
#X obj 23 61 unpack f f f f;
#X connect 1 0 8 0;
#X connect 2 0 7 4;
#X connect 2 1 7 5;
#X connect 4 0 7 2;
#X connect 4 1 7 3;
#X connect 5 0 7 0;
#X connect 5 1 7 1;
#X connect 6 0 7 6;
#X connect 6 1 7 7;
#X connect 7 0 0 0;
#X connect 8 0 5 0;
#X connect 8 1 4 0;
#X connect 8 2 2 0;
#X connect 8 3 6 0;
#X restore 116 305 pd hex;
#X obj 108 379 list append 10;
#X obj 108 400 list trim;
#X obj 103 55 print to;
#X obj 102 32 list fromsymbol;
#X obj 102 9 cyclone/tosymbol;
#X obj 102 -14 r lightOut;
#N canvas 0 23 450 300 testmessages 0;
#X msg 204 768 50 49 49 10;
#X msg 186 708 50 49 10;
#X msg 122 864 114 49 100 10;
#X msg 98 1030 103 \$1 100 10;
#X floatatom 90 918 5 0 0 0 - - -;
#X msg 136 672 48 10;
#X obj 136 587 r scene;
#X obj 136 632 sel 0;
#X obj 41 1079 outlet;
#X msg 214 892 0 \, 10;
#X msg 221 977 223;
#X connect 0 0 8 0;
#X connect 1 0 8 0;
#X connect 2 0 8 0;
#X connect 3 0 8 0;
#X connect 4 0 3 0;
#X connect 5 0 8 0;
#X connect 6 0 7 0;
#X connect 7 0 5 0;
#X connect 9 0 8 0;
#X connect 10 0 8 0;
#X restore 173 398 pd testmessages;
#X obj 174 -15 r singleOctave;
#X obj 169 306 list tosymbol;
#X symbolatom 169 330 10 0 0 0 - - -;
#X msg 167 430 devices;
#X floatatom 512 161 5 0 0 0 - - -;
#X obj 513 283 unpack f f f, f 17;
#X obj 513 376 pack f f f, f 17;
#X obj 282 633 loadbang;
#X obj 512 185 % 12;
#X obj 654 13 cyclone/counter 0 0 12;
#X obj 655 -36 tgl 15 0 empty empty empty 17 7 0 10 -262144 -1 -1 0
1;
#X msg 222 430 open 1;
#X msg 842 507 16 \$1 \$2 \$3;
#X obj 512 125 spigot;
#X obj 550 65 loadbang;
#X msg 550 86 1;
#X obj 549 124 tgl 15 0 empty empty empty 17 7 0 10 -262144 -1 -1 1
1;
#X obj 655 -15 metro 200;
#X obj -4 804 netreceive -u -b 8000;
#X obj -4 825 fudiparse;
#X obj -4 846 print;
#X obj 56 885 loadbang;
#X msg 56 906 \; pd dsp 1;
#X msg 40 -13 open 1;
#X obj 513 351 i;
#X obj 562 350 i;
#X obj 612 349 i;
#X obj 546 441 cyclone/scale 60 80 0 150;
#X obj 107 472 comport 0 115200;
#X text 847 308 D;
#X floatatom 984 18 5 0 0 0 - - -;
#X obj 945 234 % 12;
#X obj 989 -72 adc~;
#X obj 989 -51 fiddle~ 1024 1 20 3;
#X floatatom 989 -6 5 0 0 0 - - -;
#X obj 945 202 - 2;
#X floatatom 931 268 5 0 0 0 - - -;
#X obj 1241 64 route 1 2 3 4;
#X floatatom 1223 93 5 0 0 0 - - -;
#X floatatom 1263 104 5 0 0 0 - - -;
#X msg 1312 218 32 \$1 \$2 \$3;
#X obj 129 280 bng 15 250 50 0 empty empty empty 17 7 0 10 -262144
-1 -1;
#X obj 912 13 bng 15 250 50 0 empty empty empty 17 7 0 10 -262144 -1
-1;
#X obj 1072 -27 env~;
#X floatatom 1072 -6 5 0 0 0 - - -;
#X obj 1132 82 tgl 15 0 empty empty empty 17 7 0 10 -262144 -1 -1 0
1;
#X obj 891 112 tgl 15 0 empty empty empty 17 7 0 10 -262144 -1 -1 0
1;
#X msg 804 64 1;
#X obj 1072 37 > 55;
#X obj 790 318 spigot;
#X msg 760 372 0 0 0;
#X obj 940 30 bng 15 250 50 0 empty empty empty 17 7 0 10 -262144 -1
-1;
#X obj 1132 105 change;
#X obj 997 126 bng 15 250 50 0 empty empty empty 17 7 0 10 -262144
-1 -1;
#X obj 1026 227 bng 15 250 50 0 empty empty empty 17 7 0 10 -262144
-1 -1;
#X text 359 -28 sensitivity: low / medium / high;
#X obj 51 703 text get rgbVals;
#X floatatom 51 676 5 0 0 0 - - -;
#X msg 107 579 symbol rgbVals;
#X msg 214 578 symbol jc;
#X msg 299 579 symbol jd;
#X obj 51 724 print;
#X obj 231 669 bng 15 250 50 0 empty empty empty 17 7 0 10 -262144
-1 -1;
#X msg 569 190 symbol rgbVals;
#X msg 676 189 symbol jc;
#X msg 761 190 symbol jd;
#N canvas 436 296 1244 726 colourLibrary 0;
#X obj 490 176 text define rgbVals;
#X obj 467 241 text insert rgbVals;
#X msg 489 152 clear;
#X obj 412 100 bng 15 250 50 0 empty empty empty 17 7 0 10 -262144
-1 -1;
#X obj 420 128 t b b b b, f 12;
#X msg 79 161 clear;
#X obj 10 108 bng 15 250 50 0 empty empty empty 17 7 0 10 -262144 -1
-1;
#X obj 10 137 t b b b b, f 12;
#X obj 80 185 text define jc;
#X obj 57 257 text insert jc;
#X msg 57 210 0.7 0.05 0 \, 0.7 0.07 0 \, 0.7 0 0 \, 0.7 0 0.14 \,
0.7 0 0.48 \, 0.55 0 0.7 \, 0.08 0 0.7 \, 0 0.02 0.7 \, 0 0.49 0.7
\, 0 0.7 0.3 \, 0.01 0.7 0 \, 0.7 0.61 0;
#X msg 885 157 clear;
#X obj 817 109 bng 15 250 50 0 empty empty empty 17 7 0 10 -262144
-1 -1;
#X obj 816 133 t b b b b, f 12;
#X obj 10 74 t b b b, f 135;
#X msg 863 211 1 0.6 0.2 \, 1 0.76 0.6 \, 0.9 0.35 0.97 \, 0.8 0.98
0.78 \, 0.05 1 1 \, 1 1 0 \, 0.85 0.7 0.63 \, 1 0 0 \, 0.75 0.45 0.58
\, 0.76 0.4 1 \, 0.2 0.8 0.2 \, 0.04 0.51 0.86;
#X obj 863 259 text insert jd;
#X obj 886 181 text define jd;
#X obj 10 19 loadbang;
#X obj 10 41 bng 15 250 50 0 empty empty empty 17 7 0 10 -262144 -1
-1;
#X msg 467 206 0.5 0 1 \, 0 0.5 1 \, 0 0 1 \, 0 1 1 \, 0 1 0 \, 0.5
1 0 \, 1 1 0 \, 1 0.75 0 \, 1 0.5 0 \, 1 0.25 0 \, 1 0 0 \, 1 0 0.5
;
#X connect 2 0 0 0;
#X connect 3 0 4 0;
#X connect 4 2 20 0;
#X connect 4 3 2 0;
#X connect 5 0 8 0;
#X connect 6 0 7 0;
#X connect 7 2 10 0;
#X connect 7 3 5 0;
#X connect 10 0 9 0;
#X connect 11 0 17 0;
#X connect 12 0 13 0;
#X connect 13 2 15 0;
#X connect 13 3 11 0;
#X connect 14 0 6 0;
#X connect 14 1 3 0;
#X connect 14 2 12 0;
#X connect 15 0 16 0;
#X connect 18 0 19 0;
#X connect 19 0 14 0;
#X connect 20 0 1 0;
#X restore 1313 174 pd colourLibrary;
#X obj 513 323 * 255;
#X obj 562 322 * 255;
#X obj 611 322 * 255;
#N canvas 967 115 1522 864 jcMessages 0;
#X msg 45 290 16 \$1 \$2 \$3;
#X msg 41 129 179 0 0;
#X msg 102 128 179 0 36;
#X text 104 101 D#;
#X msg 178 129 179 0 122;
#X msg 252 128 140 0 179;
#X text 168 170 F;
#X msg 329 127 21 0 179;
#X msg 400 127 0 6 179;
#X msg 467 127 0 125 179;
#X msg 548 127 0 179 77;
#X msg 613 125 3 179 0;
#X msg 676 129 179 155 0;
#X msg 751 131 179 12 0;
#X msg 829 129 179 18 0;
#X obj 51 82 select 0 1 2 3 4 5 6 7 8 9 10 11;
#X obj 52 39 inlet;
#X floatatom 52 60 5 0 0 0 - - -;
#X obj 45 311 outlet;
#X connect 0 0 18 0;
#X connect 1 0 0 0;
#X connect 2 0 0 0;
#X connect 4 0 0 0;
#X connect 5 0 0 0;
#X connect 7 0 0 0;
#X connect 8 0 0 0;
#X connect 9 0 0 0;
#X connect 10 0 0 0;
#X connect 11 0 0 0;
#X connect 12 0 0 0;
#X connect 13 0 0 0;
#X connect 14 0 0 0;
#X connect 15 0 1 0;
#X connect 15 1 2 0;
#X connect 15 2 4 0;
#X connect 15 3 5 0;
#X connect 15 4 7 0;
#X connect 15 5 8 0;
#X connect 15 6 9 0;
#X connect 15 7 10 0;
#X connect 15 8 11 0;
#X connect 15 9 12 0;
#X connect 15 10 13 0;
#X connect 15 11 14 0;
#X connect 16 0 17 0;
#X connect 17 0 15 0;
#X restore 1262 -1 pd jcMessages;
#X obj 581 488 tgl 15 0 empty empty empty 17 7 0 10 -262144 -1 -1 0
1;
#X obj 581 508 t i i;
#X obj 548 602 spigot;
#X obj 608 546 sel 1 0;
#X obj 627 602 255;
#X msg 269 130 low;
#X msg 303 130 medium;
#X msg 354 130 high;
#X obj 546 462 clip 0 255;
#X obj 513 248 text get jc;
#X obj 579 137 r preset1;
#X obj 579 161 bng 15 250 50 0 empty empty empty 17 7 0 10 -262144
-1 -1;
#X obj 677 161 bng 15 250 50 0 empty empty empty 17 7 0 10 -262144
-1 -1;
#X obj 677 137 r preset2;
#X obj 762 161 bng 15 250 50 0 empty empty empty 17 7 0 10 -262144
-1 -1;
#X obj 762 137 r preset3;
#X obj 758 599 s preset1r;
#X msg 758 567 color -1.67117e+07 0 0;
#X obj 756 695 s preset2r;
#X obj 760 786 s preset3r;
#X msg 756 662 color -1.67117e+07 0 0;
#X msg 759 752 color -1.67117e+07 0 0;
#X obj 758 533 sel 1 0;
#X obj 756 633 sel 1 0;
#X obj 759 724 sel 1 0;
#X msg 751 438 1 0 0;
#X obj 751 468 unpack f f f;
#X msg 801 438 0 1 0;
#X msg 848 438 0 0 1;
#X obj 752 408 r preset1;
#X obj 817 408 r preset2;
#X obj 880 408 r preset3;
#X msg 913 566 color -1.67772e+07 0 -1;
#X msg 911 661 color -1.67772e+07 0 -1;
#X msg 914 751 color -1.67772e+07 0 -1;
#X obj 1025 202 delay 500;
#X obj 804 88 makenote 1 2000;
#X obj 1147 152 metro 500;
#X obj 1071 61 t i i i, f 10;
#X obj 996 89 sel 1 0;
#X obj 1106 232 f;
#X obj 1106 253 sel 1;
#X obj 712 318 sel 0 1;
#X obj 513 217 f;
#X obj 1072 12 t i i;
#X obj 1088 135 > 90;
#X obj 1038 270 sigmund~;
#X floatatom 1038 291 5 0 0 0 - - -;
#X obj 1014 355 f;
#X floatatom 1014 376 5 0 0 0 - - -;
#X obj 1053 371 delay 100;
#X obj 1014 417 sel 1;
#X obj 690 344 delay 100;
#X obj 1014 396 > 35;
#X obj 116 247 cyclone/speedlim 120;
#X connect 0 0 1 0;
#X connect 0 0 9 0;
#X connect 1 0 2 0;
#X connect 2 0 36 0;
#X connect 4 0 3 0;
#X connect 4 0 1 0;
#X connect 5 0 4 0;
#X connect 6 0 5 0;
#X connect 7 0 36 0;
#X connect 8 0 5 0;
#X connect 9 0 10 0;
#X connect 11 0 36 0;
#X connect 12 0 16 0;
#X connect 13 0 75 0;
#X connect 13 1 76 0;
#X connect 13 2 77 0;
#X connect 14 0 20 0;
#X connect 16 0 122 0;
#X connect 17 0 12 0;
#X connect 18 0 25 0;
#X connect 19 0 36 0;
#X connect 20 0 133 0;
#X connect 21 0 12 0;
#X connect 22 0 23 0;
#X connect 23 0 24 0;
#X connect 24 0 21 1;
#X connect 25 0 17 0;
#X connect 26 0 27 0;
#X connect 27 0 28 0;
#X connect 29 0 30 0;
#X connect 31 0 36 0;
#X connect 32 0 14 0;
#X connect 33 0 14 1;
#X connect 34 0 14 2;
#X connect 35 0 87 0;
#X connect 38 0 43 0;
#X connect 38 0 59 0;
#X connect 38 0 12 0;
#X connect 39 0 44 0;
#X connect 40 0 41 0;
#X connect 40 0 51 0;
#X connect 40 0 125 0;
#X connect 41 0 42 0;
#X connect 41 4 45 0;
#X connect 42 0 38 0;
#X connect 43 0 39 0;
#X connect 44 0 88 0;
#X connect 45 0 46 0;
#X connect 45 1 47 0;
#X connect 48 0 133 0;
#X connect 50 0 55 0;
#X connect 51 0 52 0;
#X connect 52 0 123 0;
#X connect 53 0 60 0;
#X connect 54 0 57 1;
#X connect 54 0 121 0;
#X connect 55 0 115 0;
#X connect 56 0 117 0;
#X connect 57 0 58 0;
#X connect 58 0 20 0;
#X connect 59 0 55 0;
#X connect 60 0 118 0;
#X connect 61 0 129 0;
#X connect 64 0 69 0;
#X connect 65 0 64 0;
#X connect 66 0 64 3;
#X connect 67 0 64 3;
#X connect 68 0 64 3;
#X connect 71 0 88 3;
#X connect 72 0 88 3;
#X connect 73 0 88 3;
#X connect 75 0 32 0;
#X connect 76 0 33 0;
#X connect 77 0 34 0;
#X connect 79 0 80 0;
#X connect 80 0 81 1;
#X connect 80 1 82 0;
#X connect 82 1 83 0;
#X connect 87 0 81 0;
#X connect 88 0 13 0;
#X connect 89 0 90 0;
#X connect 90 0 71 0;
#X connect 91 0 72 0;
#X connect 92 0 91 0;
#X connect 93 0 73 0;
#X connect 94 0 93 0;
#X connect 96 0 95 0;
#X connect 99 0 97 0;
#X connect 100 0 98 0;
#X connect 101 0 96 0;
#X connect 101 1 111 0;
#X connect 102 0 99 0;
#X connect 102 1 112 0;
#X connect 103 0 100 0;
#X connect 103 1 113 0;
#X connect 104 0 105 0;
#X connect 105 0 101 0;
#X connect 105 1 102 0;
#X connect 105 2 103 0;
#X connect 106 0 105 0;
#X connect 107 0 105 0;
#X connect 108 0 104 0;
#X connect 109 0 106 0;
#X connect 110 0 107 0;
#X connect 111 0 95 0;
#X connect 112 0 97 0;
#X connect 113 0 98 0;
#X connect 114 0 62 0;
#X connect 115 1 54 0;
#X connect 116 0 119 0;
#X connect 117 2 53 0;
#X connect 118 0 61 0;
#X connect 118 1 114 0;
#X connect 119 0 120 0;
#X connect 121 0 131 0;
#X connect 121 1 122 0;
#X connect 122 0 88 0;
#X connect 123 0 56 0;
#X connect 123 1 124 0;
#X connect 124 0 119 0;
#X connect 125 0 126 0;
#X connect 126 0 127 1;
#X connect 127 0 128 0;
#X connect 128 0 132 0;
#X connect 129 0 127 0;
#X connect 130 0 50 0;
#X connect 131 0 58 0;
#X connect 132 0 130 0;
#X connect 133 0 0 0;
#X connect 133 0 49 0;
#X restore 94 880 pd lights;
#X obj 25 25 bng 200 250 50 0 preset1 preset1r 1 75 100 0 100 -262144
-1 -1;
#X obj 200 100 cnv 15 50 50 empty wheel0 empty 20 12 0 14 -199681 -262144
0;
#X obj 186 150 cnv 15 50 50 empty wheel1 empty 20 12 0 14 -201217 -262144
0;
#X obj 150 186 cnv 15 50 50 empty wheel2 empty 20 12 0 14 -196609 -262144
0;
#X obj 100 200 cnv 15 50 50 empty wheel3 empty 20 12 0 14 -196645 -262144
0;
#X obj 50 186 cnv 15 50 50 empty wheel4 empty 20 12 0 14 -196731 -262144
0;
#X obj 13 150 cnv 15 50 50 empty wheel5 empty 20 12 0 14 -180 -262144
0;
#X obj 0 100 cnv 15 50 50 empty wheel6 empty 20 12 0 14 -65716 -262144
0;
#X obj 13 50 cnv 15 50 50 empty wheel7 empty 20 12 0 14 -1716 -262144
0;
#X obj 49 13 cnv 15 50 50 empty wheel8 empty 20 12 0 14 -32180 -262144
0;
#X obj 99 0 cnv 15 50 50 empty wheel9 empty 20 12 0 14 -45902 -262144
0;
#X obj 150 13 cnv 15 50 50 empty wheel10 empty 20 12 0 14 -242433 -262144
0;
#X obj 186 49 cnv 15 50 50 empty wheel11 empty 20 12 0 14 -236289 -262144
0;
#X obj 207 243 bng 200 250 50 0 preset2 preset2r 2 75 100 0 100 -262144
-1 -1;
#X obj 382 318 cnv 15 50 50 empty wheel0 empty 20 12 0 14 -196864 -262144
0;
#X obj 368 368 cnv 15 50 50 empty wheel1 empty 20 12 0 14 -32768 -262144
0;
#X obj 332 404 cnv 15 50 50 empty wheel2 empty 20 12 0 14 -256 -262144
0;
#X obj 282 418 cnv 15 50 50 empty wheel3 empty 20 12 0 14 -65536 -262144
0;
#X obj 232 404 cnv 15 50 50 empty wheel4 empty 20 12 0 14 -65281 -262144
0;
#X obj 195 368 cnv 15 50 50 empty wheel5 empty 20 12 0 14 -261889 -262144
0;
#X obj 182 318 cnv 15 50 50 empty wheel6 empty 20 12 0 14 -261889 -262144
0;
#X obj 195 268 cnv 15 50 50 empty wheel7 empty 20 12 0 14 -245505 -262144
0;
#X obj 231 231 cnv 15 50 50 empty wheel8 empty 20 12 0 14 -229121 -262144
0;
#X obj 281 218 cnv 15 50 50 empty wheel9 empty 20 12 0 14 -212737 -262144
0;
#X obj 332 231 cnv 15 50 50 empty wheel10 empty 20 12 0 14 -196609
-262144 0;
#X obj 368 267 cnv 15 50 50 empty wheel11 empty 20 12 0 14 -196736
-262144 0;
#X obj 25 469 bng 200 250 50 0 preset3 preset3r 3 75 100 0 100 -262144
-1 -1;
#X obj 200 544 cnv 15 50 50 empty wheel0 empty 20 12 0 14 -235828 -262144
0;
#X obj 186 594 cnv 15 50 50 empty wheel1 empty 20 12 0 14 -246170 -262144
0;
#X obj 150 630 cnv 15 50 50 empty wheel2 empty 20 12 0 14 -88568 -262144
0;
#X obj 100 644 cnv 15 50 50 empty wheel3 empty 20 12 0 14 -63943 -262144
0;
#X obj 50 630 cnv 15 50 50 empty wheel4 empty 20 12 0 14 -65536 -262144
0;
#X obj 13 594 cnv 15 50 50 empty wheel5 empty 20 12 0 14 -261889 -262144
0;
#X obj 0 544 cnv 15 50 50 empty wheel6 empty 20 12 0 14 -45729 -262144
0;
#X obj 13 494 cnv 15 50 50 empty wheel7 empty 20 12 0 14 -196609 -262144
0;
#X obj 49 457 cnv 15 50 50 empty wheel8 empty 20 12 0 14 -225940 -262144
0;
#X obj 99 444 cnv 15 50 50 empty wheel9 empty 20 12 0 14 -91904 -262144
0;
#X obj 150 457 cnv 15 50 50 empty wheel10 empty 20 12 0 14 -248884
-262144 0;
#X obj 186 493 cnv 15 50 50 empty wheel11 empty 20 12 0 14 -164572
-262144 0;
