#N canvas -193 389 1440 872 10;
#N canvas 240 150 1440 872 lights 1;
#N canvas 96 92 896 611 hex 0;
#X obj 133 548 outlet;
#X obj 42 13 inlet;
#X obj 396 293 expr if (int($f1 / 16) <= 9 \, int($f1 / 16) + 48 \, int($f1 / 16) + 55) \; if ($f1 % 16 <= 9 \, int($f1 % 16) + 48 \, int($f1 % 16) + 55);
#X text 363 435 expr if ($f1 / 16 <= 9 \, int($f1 / 16) + 48 \, int($f1 / 16) + 55) \; if ($f1 % 16 <= 9 \, int($f1 % 16) + 48 \, int($f1 % 16) + 55);
#X obj 298 185 expr if (int($f1 / 16) <= 9 \, int($f1 / 16) + 48 \, int($f1 / 16) + 55) \; if ($f1 % 16 <= 9 \, int($f1 % 16) + 48 \, int($f1 % 16) + 55);
#X obj 211 128 expr if (int($f1 / 16) <= 9 \, int($f1 / 16) + 48 \, int($f1 / 16) + 55) \; if ($f1 % 16 <= 9 \, int($f1 % 16) + 48 \, int($f1 % 16) + 55);
#X obj 763 291 expr if (int($f1 / 16) <= 9 \, int($f1 / 16) + 48 \, int($f1 / 16) + 55) \; if ($f1 % 16 <= 9 \, int($f1 % 16) + 48 \, int($f1 % 16) + 55);
#X obj 138 473 pack f f f f f f f f;
#X obj 23 61 unpack f f f f;
#X connect 1 0 8 0;
#X connect 2 0 7 4;
#X connect 2 1 7 5;
#X connect 4 0 7 2;
#X connect 4 1 7 3;
#X connect 5 0 7 0;
#X connect 5 1 7 1;
#X connect 6 0 7 6;
#X connect 6 1 7 7;
#X connect 7 0 0 0;
#X connect 8 0 5 0;
#X connect 8 1 4 0;
#X connect 8 2 2 0;
#X connect 8 3 6 0;
#X restore 116 305 pd hex;
#X obj 108 379 list append 10;
#X obj 108 400 list trim;
#X obj 103 55 print to;
#X obj 102 32 list fromsymbol;
#X obj 102 9 cyclone/tosymbol;
#X obj 102 -14 r lightOut;
#N canvas 0 23 450 300 testmessages 0;
#X msg 204 768 50 49 49 10;
#X msg 186 708 50 49 10;
#X msg 122 864 114 49 100 10;
#X msg 98 1030 103 \$1 100 10;
#X floatatom 90 918 5 0 0 0 - - - 0;
#X msg 136 672 48 10;
#X obj 136 587 r scene;
#X obj 136 632 sel 0;
#X obj 41 1079 outlet;
#X msg 214 892 0 \, 10;
#X msg 221 977 223;
#X connect 0 0 8 0;
#X connect 1 0 8 0;
#X connect 2 0 8 0;
#X connect 3 0 8 0;
#X connect 4 0 3 0;
#X connect 5 0 8 0;
#X connect 6 0 7 0;
#X connect 7 0 5 0;
#X connect 9 0 8 0;
#X connect 10 0 8 0;
#X restore 173 398 pd testmessages;
#X obj 174 -15 r singleOctave;
#X obj 169 306 list tosymbol;
#X symbolatom 169 330 10 0 0 0 - - - 0;
#X msg 167 430 devices;
#X floatatom 512 161 5 0 0 0 - - - 0;
#X obj 513 283 unpack f f f, f 17;
#X obj 513 376 pack f f f, f 17;
#X obj 282 633 loadbang;
#X obj 512 185 % 12;
#X obj 654 13 cyclone/counter 0 0 12;
#X obj 655 -36 tgl 15 0 empty empty empty 17 7 0 10 #fcfcfc #000000 #000000 0 1;
#X msg 222 430 open 1;
#X msg 842 507 16 \$1 \$2 \$3;
#X obj 512 125 spigot;
#X obj 550 65 loadbang;
#X msg 550 86 1;
#X obj 549 124 tgl 15 0 empty empty empty 17 7 0 10 #fcfcfc #000000 #000000 0 1;
#X obj 655 -15 metro 200;
#X obj -4 804 netreceive -u -b 8000;
#X obj -4 825 fudiparse;
#X obj -4 846 print;
#X obj 56 885 loadbang;
#X msg 56 906 \; pd dsp 1;
#X msg 40 -13 open 1;
#X obj 513 351 i;
#X obj 562 350 i;
#X obj 612 349 i;
#X obj 546 441 cyclone/scale 60 80 0 150;
#X obj 107 472 comport 0 115200;
#X text 847 308 D;
#X floatatom 984 18 5 0 0 0 - - - 0;
#X obj 945 234 % 12;
#X obj 989 -72 adc~;
#X obj 989 -51 fiddle~ 1024 1 20 3;
#X floatatom 989 -6 5 0 0 0 - - - 0;
#X obj 945 202 - 2;
#X floatatom 931 268 5 0 0 0 - - - 0;
#X obj 1241 64 route 1 2 3 4;
#X floatatom 1223 93 5 0 0 0 - - - 0;
#X floatatom 1263 104 5 0 0 0 - - - 0;
#X msg 1312 218 32 \$1 \$2 \$3;
#X obj 129 280 bng 15 250 50 0 empty empty empty 17 7 0 10 #fcfcfc #000000 #000000;
#X obj 1014 439 bng 15 250 50 0 empty empty empty 17 7 0 10 #fcfcfc #000000 #000000;
#X obj 1072 -27 env~;
#X floatatom 1072 -6 5 0 0 0 - - - 0;
#X obj 1132 82 tgl 15 0 empty empty empty 17 7 0 10 #fcfcfc #000000 #000000 0 1;
#X obj 891 112 tgl 15 0 empty empty empty 17 7 0 10 #fcfcfc #000000 #000000 0 1;
#X msg 804 64 1;
#X obj 1072 37 > 55;
#X obj 790 318 spigot;
#X msg 760 372 0 0 0;
#X obj 940 30 bng 15 250 50 0 empty empty empty 17 7 0 10 #fcfcfc #000000 #000000;
#X obj 1132 105 change;
#X obj 997 126 bng 15 250 50 0 empty empty empty 17 7 0 10 #fcfcfc #000000 #000000;
#X obj 1026 227 bng 15 250 50 0 empty empty empty 17 7 0 10 #fcfcfc #000000 #000000;
#X text 359 -28 sensitivity: low / medium / high;
#X obj 51 703 text get rgbVals;
#X floatatom 51 676 5 0 0 0 - - - 0;
#X msg 107 579 symbol rgbVals;
#X msg 214 578 symbol jc;
#X msg 299 579 symbol jd;
#X obj 51 724 print;
#X obj 231 669 bng 15 250 50 0 empty empty empty 17 7 0 10 #fcfcfc #000000 #000000;
#X msg 569 190 symbol rgbVals;
#X msg 676 189 symbol jc;
#X msg 761 190 symbol jd;
#N canvas 436 296 1244 726 colourLibrary 0;
#X obj 490 176 text define rgbVals;
#X obj 467 241 text insert rgbVals;
#X msg 489 152 clear;
#X obj 412 100 bng 15 250 50 0 empty empty empty 17 7 0 10 #fcfcfc #000000 #000000;
#X obj 420 128 t b b b b, f 12;
#X msg 79 161 clear;
#X obj 10 108 bng 15 250 50 0 empty empty empty 17 7 0 10 #fcfcfc #000000 #000000;
#X obj 10 137 t b b b b, f 12;
#X obj 80 185 text define jc;
#X obj 57 257 text insert jc;
#X msg 57 210 0.7 0.05 0 \, 0.7 0.07 0 \, 0.7 0 0 \, 0.7 0 0.14 \, 0.7 0 0.48 \, 0.55 0 0.7 \, 0.08 0 0.7 \, 0 0.02 0.7 \, 0 0.49 0.7 \, 0 0.7 0.3 \, 0.01 0.7 0 \, 0.7 0.61 0;
#X msg 885 157 clear;
#X obj 817 109 bng 15 250 50 0 empty empty empty 17 7 0 10 #fcfcfc #000000 #000000;
#X obj 816 133 t b b b b, f 12;
#X obj 10 74 t b b b, f 135;
#X msg 863 211 1 0.6 0.2 \, 1 0.76 0.6 \, 0.9 0.35 0.97 \, 0.8 0.98 0.78 \, 0.05 1 1 \, 1 1 0 \, 0.85 0.7 0.63 \, 1 0 0 \, 0.75 0.45 0.58 \, 0.76 0.4 1 \, 0.2 0.8 0.2 \, 0.04 0.51 0.86;
#X obj 863 259 text insert jd;
#X obj 886 181 text define jd;
#X obj 10 19 loadbang;
#X obj 10 41 bng 15 250 50 0 empty empty empty 17 7 0 10 #fcfcfc #000000 #000000;
#X msg 467 206 0.5 0 1 \, 0 0.5 1 \, 0 0 1 \, 0 1 1 \, 0 1 0 \, 0.5 1 0 \, 1 1 0 \, 1 0.75 0 \, 1 0.5 0 \, 1 0.25 0 \, 1 0 0 \, 1 0 0.5;
#X connect 2 0 0 0;
#X connect 3 0 4 0;
#X connect 4 2 20 0;
#X connect 4 3 2 0;
#X connect 5 0 8 0;
#X connect 6 0 7 0;
#X connect 7 2 10 0;
#X connect 7 3 5 0;
#X connect 10 0 9 0;
#X connect 11 0 17 0;
#X connect 12 0 13 0;
#X connect 13 2 15 0;
#X connect 13 3 11 0;
#X connect 14 0 6 0;
#X connect 14 1 3 0;
#X connect 14 2 12 0;
#X connect 15 0 16 0;
#X connect 18 0 19 0;
#X connect 19 0 14 0;
#X connect 20 0 1 0;
#X restore 1313 174 pd colourLibrary;
#X obj 513 323 * 255;
#X obj 562 322 * 255;
#X obj 611 322 * 255;
#N canvas 967 115 1522 864 jcMessages 0;
#X msg 45 290 16 \$1 \$2 \$3;
#X msg 41 129 179 0 0;
#X msg 102 128 179 0 36;
#X text 104 101 D#;
#X msg 178 129 179 0 122;
#X msg 252 128 140 0 179;
#X text 168 170 F;
#X msg 329 127 21 0 179;
#X msg 400 127 0 6 179;
#X msg 467 127 0 125 179;
#X msg 548 127 0 179 77;
#X msg 613 125 3 179 0;
#X msg 676 129 179 155 0;
#X msg 751 131 179 12 0;
#X msg 829 129 179 18 0;
#X obj 51 82 select 0 1 2 3 4 5 6 7 8 9 10 11;
#X obj 52 39 inlet;
#X floatatom 52 60 5 0 0 0 - - - 0;
#X obj 45 311 outlet;
#X connect 0 0 18 0;
#X connect 1 0 0 0;
#X connect 2 0 0 0;
#X connect 4 0 0 0;
#X connect 5 0 0 0;
#X connect 7 0 0 0;
#X connect 8 0 0 0;
#X connect 9 0 0 0;
#X connect 10 0 0 0;
#X connect 11 0 0 0;
#X connect 12 0 0 0;
#X connect 13 0 0 0;
#X connect 14 0 0 0;
#X connect 15 0 1 0;
#X connect 15 1 2 0;
#X connect 15 2 4 0;
#X connect 15 3 5 0;
#X connect 15 4 7 0;
#X connect 15 5 8 0;
#X connect 15 6 9 0;
#X connect 15 7 10 0;
#X connect 15 8 11 0;
#X connect 15 9 12 0;
#X connect 15 10 13 0;
#X connect 15 11 14 0;
#X connect 16 0 17 0;
#X connect 17 0 15 0;
#X restore 1262 -1 pd jcMessages;
#X obj 581 488 tgl 15 0 empty empty empty 17 7 0 10 #fcfcfc #000000 #000000 0 1;
#X obj 548 602 spigot;
#X obj 608 546 sel 1 0;
#X obj 627 602 255;
#X msg 269 130 low;
#X msg 303 130 medium;
#X msg 354 130 high;
#X obj 546 462 clip 0 255;
#X obj 513 248 text get jc;
#X obj 579 137 r preset1;
#X obj 579 161 bng 15 250 50 0 empty empty empty 17 7 0 10 #fcfcfc #000000 #000000;
#X obj 677 161 bng 15 250 50 0 empty empty empty 17 7 0 10 #fcfcfc #000000 #000000;
#X obj 677 137 r preset2;
#X obj 762 161 bng 15 250 50 0 empty empty empty 17 7 0 10 #fcfcfc #000000 #000000;
#X obj 762 137 r preset3;
#X obj 758 599 s preset1r;
#X msg 758 567 color -1.67117e+07 0 0;
#X obj 756 695 s preset2r;
#X obj 760 786 s preset3r;
#X msg 756 662 color -1.67117e+07 0 0;
#X msg 759 752 color -1.67117e+07 0 0;
#X obj 758 533 sel 1 0;
#X obj 756 633 sel 1 0;
#X obj 759 724 sel 1 0;
#X msg 751 438 1 0 0;
#X obj 751 468 unpack f f f;
#X msg 801 438 0 1 0;
#X msg 848 438 0 0 1;
#X obj 752 408 r preset1;
#X obj 817 408 r preset2;
#X obj 880 408 r preset3;
#X msg 913 566 color -1.67772e+07 0 -1;
#X msg 911 661 color -1.67772e+07 0 -1;
#X msg 914 751 color -1.67772e+07 0 -1;
#X obj 1025 202 delay 500;
#X obj 804 88 makenote 1 2000;
#X obj 1147 152 metro 500;
#X obj 996 89 sel 1 0;
#X obj 1106 232 f;
#X obj 1106 253 sel 1;
#X obj 712 318 sel 0 1;
#X obj 513 217 f;
#X obj 1072 12 t i i;
#X obj 1088 135 > 90;
#X obj 1038 270 sigmund~;
#X floatatom 1038 291 5 0 0 0 - - - 0;
#X obj 1014 355 f;
#X floatatom 1014 376 5 0 0 0 - - - 0;
#X obj 1053 371 delay 100;
#X obj 1014 417 sel 1;
#X obj 690 344 delay 100;
#X obj 1014 396 > 35;
#X obj 116 247 cyclone/speedlim 120;
#X text 51 -53 reset button;
#X obj 1071 61 t f f f, f 10;
#X obj 581 508 t f f;
#X obj 1157 491 r notePreview;
#X obj 1156 518 makenote 1 1000;
#X floatatom 1156 539 5 0 0 0 - - - 0;
#X floatatom 1241 541 5 0 0 0 - - - 0;
#X obj 1159 591 poly 1 1;
#X floatatom 1159 665 5 0 0 0 - - - 0;
#X floatatom 1190 634 5 0 0 0 - - - 0;
#X floatatom 1228 636 5 0 0 0 - - - 0;
#X msg 37 37;
#X obj 37 58;
#X obj 1210 693 cyclone/borax;
#X floatatom 1227 735 5 0 0 0 - - - 0;
#X obj 1226 756 > 0;
#X floatatom 1262 744 5 0 0 0 - - - 0;
#X obj 1226 777 sel 0;
#X obj 1187 332 poly 4 1;
#N canvas 0 25 1673 989 presetPreviewColours 0;
#X msg 29 114 \; noteC-r color -1.1734e+07 0 0;
#X msg 29 144 \; noteCsharp-r color -1.17356e+07 0 0;
#X msg 29 174 \; noteD-r color -1.17309e+07 0 0;
#X msg 29 204 \; noteDsharp-r color -1.1731e+07 0 0;
#X msg 29 234 \; noteE-r color -1.17311e+07 0 0;
#X msg 29 264 \; noteF-r color -9.17522e+06 0 0;
#X msg 29 294 \; noteFsharp-r color -1.37644e+06 0 0;
#X msg 29 324 \; noteG-r color -1716 0 0;
#X msg 29 354 \; noteGsharp-r color -32180 0 0;
#X msg 29 384 \; noteA-r color -45902 0 0;
#X msg 29 414 \; noteAsharp-r color -242433 0 0;
#X msg 29 444 \; noteB-r color -1.17706e+07 0 0;
#X msg 362 118 \; noteC-r color -8.32333e+06 0 0;
#X msg 362 148 \; noteCsharp-r color -32768 0 0;
#X msg 362 178 \; noteD-r color -256 0 0;
#X msg 362 208 \; noteDsharp-r color -65536 0 0;
#X msg 362 238 \; noteE-r color -65281 0 0;
#X msg 362 268 \; noteF-r color -8.38835e+06 0 0;
#X msg 362 298 \; noteFsharp-r color -1.6777e+07 0 0;
#X msg 362 328 \; noteG-r color -1.67606e+07 0 0;
#X msg 362 358 \; noteGsharp-r color -1.67442e+07 0 0;
#X msg 362 388 \; noteA-r color -1.67278e+07 0 0;
#X msg 362 418 \; noteAsharp-r color -1.67117e+07 0 0;
#X msg 362 448 \; noteB-r color -1.67118e+07 0 0;
#X msg 666 111 \; noteC-r color -1.67509e+07 0 0;
#X msg 666 141 \; noteCsharp-r color -1.67612e+07 0 0;
#X msg 666 171 \; noteD-r color -1.50308e+07 0 0;
#X msg 666 201 \; noteDsharp-r color -1.34333e+07 0 0;
#X msg 666 231 \; noteE-r color -851968 0 0;
#X msg 666 261 \; noteF-r color -1.6777e+07 0 0;
#X msg 666 291 \; noteFsharp-r color -1.42015e+07 0 0;
#X msg 666 321 \; noteG-r color -1.67117e+07 0 0;
#X msg 666 351 \; noteGsharp-r color -1.25467e+07 0 0;
#X msg 666 381 \; noteA-r color -1.26748e+07 0 0;
#X msg 666 411 \; noteAsharp-r color -3.39461e+06 0 0;
#X msg 666 441 \; noteB-r color -688860 0 0;
#X obj 27 60 bng 15 250 50 0 empty empty empty 17 7 0 10 #fcfcfc #000000 #000000;
#X obj 359 54 bng 15 250 50 0 empty empty empty 17 7 0 10 #fcfcfc #000000 #000000;
#X obj 664 53 bng 15 250 50 0 empty empty empty 17 7 0 10 #fcfcfc #000000 #000000;
#X obj 26 28 r preset1;
#X obj 359 25 r preset2;
#X obj 664 29 r preset3;
#X connect 36 0 0 0;
#X connect 36 0 11 0;
#X connect 36 0 10 0;
#X connect 36 0 9 0;
#X connect 36 0 8 0;
#X connect 36 0 7 0;
#X connect 36 0 6 0;
#X connect 36 0 5 0;
#X connect 36 0 4 0;
#X connect 36 0 3 0;
#X connect 36 0 2 0;
#X connect 36 0 1 0;
#X connect 37 0 12 0;
#X connect 37 0 23 0;
#X connect 37 0 22 0;
#X connect 37 0 21 0;
#X connect 37 0 20 0;
#X connect 37 0 19 0;
#X connect 37 0 18 0;
#X connect 37 0 17 0;
#X connect 37 0 16 0;
#X connect 37 0 15 0;
#X connect 37 0 14 0;
#X connect 37 0 13 0;
#X connect 38 0 24 0;
#X connect 38 0 35 0;
#X connect 38 0 34 0;
#X connect 38 0 33 0;
#X connect 38 0 32 0;
#X connect 38 0 31 0;
#X connect 38 0 30 0;
#X connect 38 0 29 0;
#X connect 38 0 28 0;
#X connect 38 0 27 0;
#X connect 38 0 26 0;
#X connect 38 0 25 0;
#X connect 39 0 36 0;
#X connect 40 0 37 0;
#X connect 41 0 38 0;
#X restore 1156 466 pd presetPreviewColours;
#X msg 73 136 open 2;
#X connect 0 0 1 0;
#X connect 0 0 9 0;
#X connect 1 0 2 0;
#X connect 2 0 36 0;
#X connect 4 0 3 0;
#X connect 4 0 1 0;
#X connect 5 0 4 0;
#X connect 6 0 5 0;
#X connect 7 0 36 0;
#X connect 8 0 5 0;
#X connect 9 0 10 0;
#X connect 11 0 36 0;
#X connect 12 0 16 0;
#X connect 13 0 75 0;
#X connect 13 1 76 0;
#X connect 13 2 77 0;
#X connect 14 0 20 0;
#X connect 16 0 120 0;
#X connect 17 0 12 0;
#X connect 18 0 25 0;
#X connect 19 0 36 0;
#X connect 20 0 131 0;
#X connect 21 0 12 0;
#X connect 22 0 23 0;
#X connect 23 0 24 0;
#X connect 24 0 21 1;
#X connect 25 0 17 0;
#X connect 26 0 27 0;
#X connect 27 0 28 0;
#X connect 29 0 30 0;
#X connect 31 0 36 0;
#X connect 32 0 14 0;
#X connect 33 0 14 1;
#X connect 34 0 14 2;
#X connect 35 0 86 0;
#X connect 38 0 43 0;
#X connect 38 0 59 0;
#X connect 38 0 12 0;
#X connect 39 0 44 0;
#X connect 40 0 41 0;
#X connect 40 0 51 0;
#X connect 40 0 123 0;
#X connect 41 0 42 0;
#X connect 41 4 45 0;
#X connect 42 0 38 0;
#X connect 43 0 39 0;
#X connect 44 0 87 0;
#X connect 45 0 46 0;
#X connect 45 1 47 0;
#X connect 48 0 131 0;
#X connect 50 0 55 0;
#X connect 51 0 52 0;
#X connect 52 0 121 0;
#X connect 53 0 60 0;
#X connect 54 0 57 1;
#X connect 54 0 119 0;
#X connect 55 0 114 0;
#X connect 56 0 133 0;
#X connect 57 0 58 0;
#X connect 58 0 20 0;
#X connect 59 0 55 0;
#X connect 60 0 116 0;
#X connect 61 0 127 0;
#X connect 64 0 69 0;
#X connect 65 0 64 0;
#X connect 66 0 64 3;
#X connect 67 0 64 3;
#X connect 68 0 64 3;
#X connect 71 0 87 3;
#X connect 72 0 87 3;
#X connect 73 0 87 3;
#X connect 75 0 32 0;
#X connect 76 0 33 0;
#X connect 77 0 34 0;
#X connect 79 0 134 0;
#X connect 81 1 82 0;
#X connect 86 0 80 0;
#X connect 87 0 13 0;
#X connect 88 0 89 0;
#X connect 89 0 71 0;
#X connect 90 0 72 0;
#X connect 91 0 90 0;
#X connect 92 0 73 0;
#X connect 93 0 92 0;
#X connect 95 0 94 0;
#X connect 98 0 96 0;
#X connect 99 0 97 0;
#X connect 100 0 95 0;
#X connect 100 1 110 0;
#X connect 101 0 98 0;
#X connect 101 1 111 0;
#X connect 102 0 99 0;
#X connect 102 1 112 0;
#X connect 103 0 104 0;
#X connect 104 0 100 0;
#X connect 104 1 101 0;
#X connect 104 2 102 0;
#X connect 105 0 104 0;
#X connect 106 0 104 0;
#X connect 107 0 103 0;
#X connect 108 0 105 0;
#X connect 109 0 106 0;
#X connect 110 0 94 0;
#X connect 111 0 96 0;
#X connect 112 0 97 0;
#X connect 113 0 62 0;
#X connect 114 1 54 0;
#X connect 115 0 117 0;
#X connect 116 0 61 0;
#X connect 116 1 113 0;
#X connect 117 0 118 0;
#X connect 119 0 129 0;
#X connect 119 1 120 0;
#X connect 120 0 87 0;
#X connect 121 0 56 0;
#X connect 121 1 122 0;
#X connect 122 0 117 0;
#X connect 123 0 124 0;
#X connect 124 0 125 1;
#X connect 125 0 126 0;
#X connect 126 0 130 0;
#X connect 127 0 125 0;
#X connect 128 0 50 0;
#X connect 129 0 58 0;
#X connect 130 0 128 0;
#X connect 131 0 0 0;
#X connect 131 0 49 0;
#X connect 133 2 53 0;
#X connect 134 0 80 1;
#X connect 134 1 81 0;
#X connect 135 0 136 0;
#X connect 136 0 137 0;
#X connect 136 0 145 0;
#X connect 136 1 138 0;
#X connect 136 1 145 1;
#X connect 137 0 139 0;
#X connect 138 0 139 1;
#X connect 139 0 140 0;
#X connect 139 1 141 0;
#X connect 139 2 142 0;
#X connect 143 0 144 0;
#X connect 145 2 146 0;
#X connect 145 3 148 0;
#X connect 146 0 147 0;
#X connect 147 0 149 0;
#X connect 148 0 12 0;
#X connect 149 0 58 0;
#X connect 152 0 36 0;
#X restore 94 880 pd lights;
#X obj 25 25 bng 200 250 50 0 preset1 preset1r 1 75 100 0 100 #fc0010 #fcfcfc #fcfcfc;
#X obj 200 100 cnv 15 50 50 empty wheel0 empty 20 12 0 14 #c0c000 #fcfcfc 0;
#X obj 186 150 cnv 15 50 50 empty wheel1 empty 20 12 0 14 #c42000 #fcfcfc 0;
#X obj 150 186 cnv 15 50 50 empty wheel2 empty 20 12 0 14 #c00000 #fcfcfc 0;
#X obj 100 200 cnv 15 50 50 empty wheel3 empty 20 12 0 14 #c00090 #fcfcfc 0;
#X obj 50 186 cnv 15 50 50 empty wheel4 empty 20 12 0 14 #c004e8 #fcfcfc 0;
#X obj 13 150 cnv 15 50 50 empty wheel5 empty 20 12 0 14 #0008cc #fcfcfc 0;
#X obj 0 100 cnv 15 50 50 empty wheel6 empty 20 12 0 14 #4008cc #fcfcfc 0;
#X obj 13 50 cnv 15 50 50 empty wheel7 empty 20 12 0 14 #0068cc #fcfcfc 0;
#X obj 49 13 cnv 15 50 50 empty wheel8 empty 20 12 0 14 #1cd8cc #fcfcfc 0;
#X obj 99 0 cnv 15 50 50 empty wheel9 empty 20 12 0 14 #2c3434 #fcfcfc 0;
#X obj 150 13 cnv 15 50 50 empty wheel10 empty 20 12 0 14 #ec3000 #fcfcfc 0;
#X obj 186 49 cnv 15 50 50 empty wheel11 empty 20 12 0 14 #e4b000 #fcfcfc 0;
#X obj 202 202 bng 200 250 50 0 preset2 preset2r 2 75 100 0 100 #fcfcec #fcfcfc #000000;
#X obj 377 277 cnv 15 50 50 empty wheel0 empty 20 12 0 14 #c00cfc #fcfcfc 0;
#X obj 363 327 cnv 15 50 50 empty wheel1 empty 20 12 0 14 #1cfcfc #fcfcfc 0;
#X obj 327 363 cnv 15 50 50 empty wheel2 empty 20 12 0 14 #000cfc #fcfcfc 0;
#X obj 277 377 cnv 15 50 50 empty wheel3 empty 20 12 0 14 #3cfcfc #fcfcfc 0;
#X obj 227 363 cnv 15 50 50 empty wheel4 empty 20 12 0 14 #3cf000 #fcfcfc 0;
#X obj 190 327 cnv 15 50 50 empty wheel5 empty 20 12 0 14 #fcf000 #fcfcfc 0;
#X obj 177 277 cnv 15 50 50 empty wheel6 empty 20 12 0 14 #fcf000 #fcfcfc 0;
#X obj 190 227 cnv 15 50 50 empty wheel7 empty 20 12 0 14 #ecf000 #fcfcfc 0;
#X obj 226 190 cnv 15 50 50 empty wheel8 empty 20 12 0 14 #dcf000 #fcfcfc 0;
#X obj 276 177 cnv 15 50 50 empty wheel9 empty 20 12 0 14 #ccf000 #fcfcfc 0;
#X obj 327 190 cnv 15 50 50 empty wheel10 empty 20 12 0 14 #c00000 #fcfcfc 0;
#X obj 363 226 cnv 15 50 50 empty wheel11 empty 20 12 0 14 #c004fc #fcfcfc 0;
#X obj 21 402 bng 200 250 50 0 preset3 preset3r 3 75 100 0 100 #fcfcec #fcfcfc #000000;
#X obj 196 477 cnv 15 50 50 empty wheel0 empty 20 12 0 14 #e490cc #fcfcfc 0;
#X obj 182 527 cnv 15 50 50 empty wheel1 empty 20 12 0 14 #f01864 #fcfcfc 0;
#X obj 146 563 cnv 15 50 50 empty wheel2 empty 20 12 0 14 #549cdc #fcfcfc 0;
#X obj 96 577 cnv 15 50 50 empty wheel3 empty 20 12 0 14 #3c9c18 #fcfcfc 0;
#X obj 46 563 cnv 15 50 50 empty wheel4 empty 20 12 0 14 #3cfcfc #fcfcfc 0;
#X obj 9 527 cnv 15 50 50 empty wheel5 empty 20 12 0 14 #fcf000 #fcfcfc 0;
#X obj -4 477 cnv 15 50 50 empty wheel6 empty 20 12 0 14 #2c2880 #fcfcfc 0;
#X obj 9 427 cnv 15 50 50 empty wheel7 empty 20 12 0 14 #c00000 #fcfcfc 0;
#X obj 45 390 cnv 15 50 50 empty wheel8 empty 20 12 0 14 #dc284c #fcfcfc 0;
#X obj 95 377 cnv 15 50 50 empty wheel9 empty 20 12 0 14 #586cfc #fcfcfc 0;
#X obj 146 390 cnv 15 50 50 empty wheel10 empty 20 12 0 14 #f0c0cc #fcfcfc 0;
#X obj 182 426 cnv 15 50 50 empty wheel11 empty 20 12 0 14 #a02c6c #fcfcfc 0;
#X obj 24 688 bng 40 250 50 0 noteC noteC-r C 15 20 0 15 #b00c00 #fcfcfc #fcfcfc;
#X obj 71 688 bng 40 250 50 0 noteD noteD-r D 15 20 0 15 #b00000 #fcfcfc #fcfcfc;
#X obj 119 688 bng 40 250 50 0 noteE noteE-r E 15 20 0 15 #b00078 #fcfcfc #fcfcfc;
#X obj 169 688 bng 40 250 50 0 noteF noteF-r F 15 20 0 15 #8c00b0 #fcfcfc #fcfcfc;
#X obj 216 688 bng 40 250 50 0 noteG noteG-r G 15 20 0 15 #0004b0 #fcfcfc #fcfcfc;
#X obj 266 688 bng 40 250 50 0 noteA noteA-r A 15 20 0 15 #00b04c #fcfcfc #fcfcfc;
#X obj 315 687 bng 40 250 50 0 noteB noteB-r B 15 20 0 15 #b09800 #fcfcfc #fcfcfc;
#X obj 49 638 bng 40 250 50 0 noteCsharp noteCsharp-r C# 15 20 0 15 #b01000 #fcfcfc #fcfcfc;
#X obj 93 639 bng 40 250 50 0 noteDsharp noteDsharp-r D# 15 20 0 15 #b00024 #fcfcfc #fcfcfc;
#X obj 190 638 bng 40 250 50 0 noteFsharp noteFsharp-r F# 15 20 0 15 #1400b0 #fcfcfc #fcfcfc;
#X obj 238 638 bng 40 250 50 0 noteGsharp noteGsharp-r G# 15 20 0 15 #007cb0 #fcfcfc #fcfcfc;
#X obj 288 638 bng 40 250 50 0 noteAsharp noteAsharp-r A# 15 20 0 15 #00b000 #fcfcfc #fcfcfc;
#X obj 641 265 r noteC;
#X obj 641 287 bng 15 250 50 0 empty empty empty 17 7 0 10 #fcfcfc #000000 #000000;
#X obj 697 287 bng 15 250 50 0 empty empty empty 17 7 0 10 #fcfcfc #000000 #000000;
#X obj 696 264 r noteCsharp;
#X obj 779 285 bng 15 250 50 0 empty empty empty 17 7 0 10 #fcfcfc #000000 #000000;
#X obj 779 263 r noteD;
#X obj 835 287 bng 15 250 50 0 empty empty empty 17 7 0 10 #fcfcfc #000000 #000000;
#X obj 834 264 r noteDsharp;
#X obj 923 287 bng 15 250 50 0 empty empty empty 17 7 0 10 #fcfcfc #000000 #000000;
#X obj 923 266 r noteE;
#X obj 977 286 bng 15 250 50 0 empty empty empty 17 7 0 10 #fcfcfc #000000 #000000;
#X obj 977 265 r noteF;
#X obj 1034 290 bng 15 250 50 0 empty empty empty 17 7 0 10 #fcfcfc #000000 #000000;
#X obj 1033 267 r noteFsharp;
#X obj 1119 288 bng 15 250 50 0 empty empty empty 17 7 0 10 #fcfcfc #000000 #000000;
#X obj 1119 267 r noteG;
#X obj 1170 287 bng 15 250 50 0 empty empty empty 17 7 0 10 #fcfcfc #000000 #000000;
#X obj 1170 266 r noteGsharp;
#X obj 1257 290 bng 15 250 50 0 empty empty empty 17 7 0 10 #fcfcfc #000000 #000000;
#X obj 1257 269 r noteA;
#X obj 1375 295 bng 15 250 50 0 empty empty empty 17 7 0 10 #fcfcfc #000000 #000000;
#X obj 1375 274 r noteB;
#X obj 1318 268 bng 15 250 50 0 empty empty empty 17 7 0 10 #fcfcfc #000000 #000000;
#X obj 1318 247 r noteAsharp;
#X msg 641 307 0;
#X msg 697 307 1;
#X msg 779 305 2;
#X msg 835 307 3;
#X msg 923 307 4;
#X msg 977 306 5;
#X msg 1034 310 6;
#X msg 1119 308 7;
#X msg 1170 307 8;
#X msg 1257 310 9;
#X msg 1318 316 10;
#X msg 1375 315 11;
#X obj 1008 404 s notePreview;
#X obj 680 172;
#X msg 684 148 9;
#X obj 742 150 > 0;
#X obj 742 171 sel 1;
#X obj 818 152 > 0;
#X obj 818 173 sel 1;
#X obj 1012 163 > 0;
#X obj 1012 184 sel 1;
#X obj 515 129 ctlin;
#X floatatom 490 210 5 0 0 0 - - - 0;
#X floatatom 562 156 5 0 0 0 - - - 0;
#X floatatom 520 169 5 0 0 0 - - - 0;
#X obj 684 100 ctlin 59;
#X obj 762 99 ctlin 57;
#X obj 1014 120 ctlin 56;
#X connect 52 0 53 0;
#X connect 53 0 76 0;
#X connect 54 0 77 0;
#X connect 55 0 54 0;
#X connect 56 0 78 0;
#X connect 57 0 56 0;
#X connect 58 0 79 0;
#X connect 59 0 58 0;
#X connect 60 0 80 0;
#X connect 61 0 60 0;
#X connect 62 0 81 0;
#X connect 63 0 62 0;
#X connect 64 0 82 0;
#X connect 65 0 64 0;
#X connect 66 0 83 0;
#X connect 67 0 66 0;
#X connect 68 0 84 0;
#X connect 69 0 68 0;
#X connect 70 0 85 0;
#X connect 71 0 70 0;
#X connect 72 0 87 0;
#X connect 73 0 72 0;
#X connect 74 0 86 0;
#X connect 75 0 74 0;
#X connect 76 0 88 0;
#X connect 77 0 88 0;
#X connect 78 0 88 0;
#X connect 79 0 88 0;
#X connect 80 0 88 0;
#X connect 81 0 88 0;
#X connect 82 0 88 0;
#X connect 83 0 88 0;
#X connect 84 0 88 0;
#X connect 85 0 88 0;
#X connect 86 0 88 0;
#X connect 87 0 88 0;
#X connect 90 0 88 0;
#X connect 91 0 92 0;
#X connect 92 0 85 0;
#X connect 93 0 94 0;
#X connect 94 0 80 0;
#X connect 95 0 96 0;
#X connect 96 0 64 0;
#X connect 97 0 98 0;
#X connect 97 1 100 0;
#X connect 97 2 99 0;
#X connect 101 0 91 0;
#X connect 102 0 93 0;
#X connect 103 0 95 0;
