#N canvas 0 129 829 627 10;
#N canvas 96 92 896 611 hex 0;
#X obj 133 548 outlet;
#X obj 42 13 inlet;
#X obj 396 293 expr if (int($f1 / 16) <= 9 \, int($f1 / 16) + 48 \,
int($f1 / 16) + 55) \; if ($f1 % 16 <= 9 \, int($f1 % 16) + 48 \, int($f1
% 16) + 55);
#X text 363 435 expr if ($f1 / 16 <= 9 \, int($f1 / 16) + 48 \, int($f1
/ 16) + 55) \; if ($f1 % 16 <= 9 \, int($f1 % 16) + 48 \, int($f1 %
16) + 55);
#X obj 298 185 expr if (int($f1 / 16) <= 9 \, int($f1 / 16) + 48 \,
int($f1 / 16) + 55) \; if ($f1 % 16 <= 9 \, int($f1 % 16) + 48 \, int($f1
% 16) + 55);
#X obj 211 128 expr if (int($f1 / 16) <= 9 \, int($f1 / 16) + 48 \,
int($f1 / 16) + 55) \; if ($f1 % 16 <= 9 \, int($f1 % 16) + 48 \, int($f1
% 16) + 55);
#X obj 763 291 expr if (int($f1 / 16) <= 9 \, int($f1 / 16) + 48 \,
int($f1 / 16) + 55) \; if ($f1 % 16 <= 9 \, int($f1 % 16) + 48 \, int($f1
% 16) + 55);
#X obj 138 473 pack f f f f f f f f;
#X obj 23 61 unpack f f f f;
#X connect 1 0 8 0;
#X connect 2 0 7 4;
#X connect 2 1 7 5;
#X connect 4 0 7 2;
#X connect 4 1 7 3;
#X connect 5 0 7 0;
#X connect 5 1 7 1;
#X connect 6 0 7 6;
#X connect 6 1 7 7;
#X connect 7 0 0 0;
#X connect 8 0 5 0;
#X connect 8 1 4 0;
#X connect 8 2 2 0;
#X connect 8 3 6 0;
#X restore 69 108 pd hex;
#X obj 139 211 comport 1 115200;
#X obj 140 158 list append 10;
#X obj 140 179 list trim;
#X obj 140 134 + 48;
#X obj 170 275 print received;
#X floatatom 140 111 5 0 0 0 - - -;
#X obj 185 133 print to;
#X obj 184 110 list fromsymbol;
#X obj 184 87 cyclone/tosymbol;
#X obj 184 64 r lightOut;
#N canvas 0 23 450 300 testmessages 0;
#X msg 204 768 50 49 49 10;
#X msg 186 708 50 49 10;
#X msg 122 864 114 49 100 10;
#X msg 98 1030 103 \$1 100 10;
#X floatatom 90 918 5 0 0 0 - - -;
#X msg 136 672 48 10;
#X obj 136 587 r scene;
#X obj 136 632 sel 0;
#X obj 41 1079 outlet;
#X msg 214 892 0 \, 10;
#X msg 221 977 223;
#X connect 0 0 8 0;
#X connect 1 0 8 0;
#X connect 2 0 8 0;
#X connect 3 0 8 0;
#X connect 4 0 3 0;
#X connect 5 0 8 0;
#X connect 6 0 7 0;
#X connect 7 0 5 0;
#X connect 9 0 8 0;
#X connect 10 0 8 0;
#X restore 205 177 pd testmessages;
#X obj 256 63 r singleOctave;
#X floatatom 51 43 5 0 255 0 - - -;
#X floatatom 95 54 5 0 255 0 - - -;
#X floatatom 136 69 5 0 255 0 - - -;
#X obj 7 365 list tosymbol;
#X symbolatom 13 414 10 0 0 0 - - -;
#X obj 257 -73 tgl 15 0 empty empty empty 17 7 0 10 -262144 -1 -1 0
1;
#X obj 34 -79 tgl 15 0 empty empty empty 17 7 0 10 -262144 -1 -1 0
1;
#X obj 148 -77 tgl 15 0 empty empty empty 17 7 0 10 -262144 -1 -1 0
1;
#X obj 149 -57 metro 20;
#X obj 258 -54 metro 15;
#X obj 17 81 pack f f f f;
#X floatatom 11 52 5 0 0 0 - - -;
#X obj 33 -61 metro 20;
#X obj 3 -52 255;
#X obj 235 20 random 255;
#X obj 310 25 random 255;
#X obj 385 24 random 255;
#X obj 409 347 line 0 10;
#X obj 477 348 line 0 10;
#X obj 544 348 line 0 10;
#X obj 20 28 1;
#X obj 6 5 cyclone/counter 2 0 15;
#X obj 35 -36 cyclone/counter 2 0 255;
#X obj 149 -15 cyclone/counter 2 0 255;
#X obj 258 -30 cyclone/counter 2 0 255;
#X msg 459 -35 16 255 0 0;
#X msg 123 268 devices;
#X msg 326 242 open 2;
#X floatatom 563 -60 5 0 0 0 - - -;
#X msg 562 -21 16 255 0 0;
#X obj 644 55 text get rgbVals;
#X obj 648 99 print;
#X floatatom 558 14 5 0 0 0 - - -;
#X obj 516 103 unpack f f f;
#X obj 510 190 pack f f f, f 17;
#X obj 510 147 * 150;
#X obj 551 148 * 150;
#X obj 590 149 * 150;
#X obj 822 99 text define rgbVals;
#X obj 800 169 text insert rgbVals;
#X msg 821 75 clear;
#X obj 751 28 loadbang;
#X obj 809 27 bng 15 250 50 0 empty empty empty 17 7 0 10 -262144 -1
-1;
#X obj 752 51 t b b b b, f 12;
#X msg 799 129 0.5 0 1 \, 0 0.5 1 \, 0 0 1 \, 0 1 1 \, 0 1 0 \, 0.5
1 0 \, 1 1 0 \, 1 0.75 0 \, 1 0.5 0 \, 1 0.25 0 \, 1 0 0;
#X msg 588 238 17 0 0 0;
#X obj 558 48 % 12;
#X obj 351 107 cyclone/counter 0 0 12;
#X obj 410 84 metro 100;
#X obj 412 53 tgl 15 0 empty empty empty 17 7 0 10 -262144 -1 -1 0
1;
#X obj 198 339 netreceive -u -b 54321;
#X floatatom 206 390 5 0 0 0 - - -;
#X msg 104 318 listen 2321;
#X obj 343 391 oscparse;
#X msg 61 243 listen 3000;
#X obj 198 360 print;
#X obj 341 412 route list;
#X obj 342 554 s;
#X msg 477 228 16 \$1 \$2 \$3;
#X obj 650 166 delay 1000;
#X obj 641 142 t b;
#X floatatom 337 481 5 0 0 0 - - -;
#X obj 696 125 bng 15 250 50 0 empty empty empty 17 7 0 10 -262144
-1 -1;
#X msg 582 302 17 0 0 0;
#X obj 500 263 print msg;
#X msg 646 195 0 0 0;
#X msg 465 26 15 100 5 0;
#X obj 338 522 + 15;
#X floatatom 602 13 5 0 0 0 - - -;
#X floatatom 644 18 5 0 0 0 - - -;
#X msg 447 445 0;
#X msg 475 444 1;
#X msg 503 443 2;
#X msg 532 442 3;
#X obj 449 415 sel 4 6 7 9 11, f 24;
#X msg 564 442 4;
#X obj 341 433 route test y;
#X floatatom 414 479 5 0 0 0 - - -;
#X obj 347 103;
#X obj 476 493 * 255;
#X obj 476 514 i;
#X obj 438 564 cyclone/speedlim 100;
#X obj 469 537 change;
#X obj 349 294 metro 40;
#X obj 354 323 tgl 15 0 empty empty empty 17 7 0 10 -262144 -1 -1 0
1;
#X obj 354 343 sel 0 1;
#X obj 398 266 cyclone/zl reg;
#X obj 540 499 cyclone/zl reg;
#X obj 335 271 tgl 15 0 empty empty empty 17 7 0 10 -262144 -1 -1 1
1;
#X symbolatom 397 222 10 0 0 0 - - -;
#X floatatom 397 242 5 0 0 0 - - -;
#X msg 438 585 15 \$1 5 0;
#X connect 0 0 2 0;
#X connect 0 0 16 0;
#X connect 2 0 3 0;
#X connect 3 0 1 0;
#X connect 4 0 2 0;
#X connect 6 0 4 0;
#X connect 8 0 7 0;
#X connect 8 0 2 0;
#X connect 9 0 8 0;
#X connect 10 0 9 0;
#X connect 11 0 1 0;
#X connect 12 0 9 0;
#X connect 13 0 23 1;
#X connect 14 0 23 2;
#X connect 15 0 23 3;
#X connect 16 0 17 0;
#X connect 18 0 22 0;
#X connect 19 0 25 0;
#X connect 20 0 21 0;
#X connect 21 0 36 0;
#X connect 22 0 37 0;
#X connect 23 0 0 0;
#X connect 24 0 23 0;
#X connect 25 0 26 0;
#X connect 25 0 27 0;
#X connect 25 0 28 0;
#X connect 25 0 29 0;
#X connect 25 0 33 0;
#X connect 25 0 34 0;
#X connect 25 0 35 0;
#X connect 27 0 13 0;
#X connect 28 0 14 0;
#X connect 29 0 15 0;
#X connect 33 0 24 0;
#X connect 35 0 13 0;
#X connect 36 0 14 0;
#X connect 37 0 15 0;
#X connect 38 0 0 0;
#X connect 39 0 1 0;
#X connect 40 0 1 0;
#X connect 41 0 42 0;
#X connect 42 0 0 0;
#X connect 43 0 44 0;
#X connect 43 0 46 0;
#X connect 45 0 59 0;
#X connect 46 0 48 0;
#X connect 46 1 49 0;
#X connect 46 2 50 0;
#X connect 47 0 71 0;
#X connect 47 0 77 0;
#X connect 48 0 47 0;
#X connect 49 0 47 1;
#X connect 50 0 47 2;
#X connect 53 0 51 0;
#X connect 54 0 56 0;
#X connect 55 0 56 0;
#X connect 56 2 57 0;
#X connect 56 3 53 0;
#X connect 57 0 52 0;
#X connect 58 0 0 0;
#X connect 59 0 43 0;
#X connect 59 0 81 0;
#X connect 60 0 45 0;
#X connect 61 0 60 0;
#X connect 62 0 61 0;
#X connect 63 0 66 0;
#X connect 63 0 68 0;
#X connect 65 0 63 0;
#X connect 66 0 69 0;
#X connect 69 0 89 0;
#X connect 71 0 99 1;
#X connect 72 0 78 0;
#X connect 73 0 72 0;
#X connect 74 0 87 0;
#X connect 75 0 73 0;
#X connect 76 0 0 0;
#X connect 79 0 0 0;
#X connect 80 0 70 0;
#X connect 80 0 45 0;
#X connect 82 0 43 0;
#X connect 83 0 82 0;
#X connect 84 0 82 0;
#X connect 85 0 82 0;
#X connect 86 0 82 0;
#X connect 87 0 83 0;
#X connect 87 1 84 0;
#X connect 87 2 85 0;
#X connect 87 3 86 0;
#X connect 87 4 88 0;
#X connect 88 0 82 0;
#X connect 89 0 74 0;
#X connect 89 1 90 0;
#X connect 90 0 92 0;
#X connect 92 0 93 0;
#X connect 93 0 95 0;
#X connect 94 0 104 0;
#X connect 95 0 94 0;
#X connect 96 0 97 0;
#X connect 97 0 98 0;
#X connect 98 0 100 0;
#X connect 98 1 99 0;
#X connect 99 0 0 0;
#X connect 100 0 0 0;
#X connect 101 0 96 0;
#X connect 102 0 103 0;
#X connect 103 0 96 1;
#X connect 104 0 100 1;
