#N canvas 12 161 1261 747 10;
#N canvas 96 92 896 611 hex 0;
#X obj 133 548 outlet;
#X obj 42 13 inlet;
#X obj 396 293 expr if (int($f1 / 16) <= 9 \, int($f1 / 16) + 48 \,
int($f1 / 16) + 55) \; if ($f1 % 16 <= 9 \, int($f1 % 16) + 48 \, int($f1
% 16) + 55);
#X text 363 435 expr if ($f1 / 16 <= 9 \, int($f1 / 16) + 48 \, int($f1
/ 16) + 55) \; if ($f1 % 16 <= 9 \, int($f1 % 16) + 48 \, int($f1 %
16) + 55);
#X obj 298 185 expr if (int($f1 / 16) <= 9 \, int($f1 / 16) + 48 \,
int($f1 / 16) + 55) \; if ($f1 % 16 <= 9 \, int($f1 % 16) + 48 \, int($f1
% 16) + 55);
#X obj 211 128 expr if (int($f1 / 16) <= 9 \, int($f1 / 16) + 48 \,
int($f1 / 16) + 55) \; if ($f1 % 16 <= 9 \, int($f1 % 16) + 48 \, int($f1
% 16) + 55);
#X obj 763 291 expr if (int($f1 / 16) <= 9 \, int($f1 / 16) + 48 \,
int($f1 / 16) + 55) \; if ($f1 % 16 <= 9 \, int($f1 % 16) + 48 \, int($f1
% 16) + 55);
#X obj 138 473 pack f f f f f f f f;
#X obj 23 61 unpack f f f f;
#X connect 1 0 8 0;
#X connect 2 0 7 4;
#X connect 2 1 7 5;
#X connect 4 0 7 2;
#X connect 4 1 7 3;
#X connect 5 0 7 0;
#X connect 5 1 7 1;
#X connect 6 0 7 6;
#X connect 6 1 7 7;
#X connect 7 0 0 0;
#X connect 8 0 5 0;
#X connect 8 1 4 0;
#X connect 8 2 2 0;
#X connect 8 3 6 0;
#X restore 166 401 pd hex;
#X obj 154 531 comport 1 115200;
#X obj 155 438 list append 10;
#X obj 155 459 list trim;
#X obj 140 134 + 48;
#X floatatom 140 111 5 0 0 0 - - -;
#X obj 185 133 print to;
#X obj 184 110 list fromsymbol;
#X obj 184 87 cyclone/tosymbol;
#X obj 184 64 r lightOut;
#N canvas 0 23 450 300 testmessages 0;
#X msg 204 768 50 49 49 10;
#X msg 186 708 50 49 10;
#X msg 122 864 114 49 100 10;
#X msg 98 1030 103 \$1 100 10;
#X floatatom 90 918 5 0 0 0 - - -;
#X msg 136 672 48 10;
#X obj 136 587 r scene;
#X obj 136 632 sel 0;
#X obj 41 1079 outlet;
#X msg 214 892 0 \, 10;
#X msg 221 977 223;
#X connect 0 0 8 0;
#X connect 1 0 8 0;
#X connect 2 0 8 0;
#X connect 3 0 8 0;
#X connect 4 0 3 0;
#X connect 5 0 8 0;
#X connect 6 0 7 0;
#X connect 7 0 5 0;
#X connect 9 0 8 0;
#X connect 10 0 8 0;
#X restore 220 457 pd testmessages;
#X obj 256 63 r singleOctave;
#X obj 277 532 list tosymbol;
#X symbolatom 277 556 10 0 0 0 - - -;
#X msg 266 490 devices;
#X obj 513 248 text get rgbVals;
#X floatatom 516 190 5 0 0 0 - - -;
#X obj 513 283 unpack f f f;
#X obj 506 354 pack f f f, f 17;
#X obj 507 327 * 150;
#X obj 548 328 * 150;
#X obj 587 329 * 150;
#X obj 830 20 text define rgbVals;
#X obj 743 156 text insert rgbVals;
#X msg 829 -4 clear;
#X obj 759 -51 loadbang;
#X obj 817 -52 bng 15 250 50 0 empty empty empty 17 7 0 10 -262144
-1 -1;
#X obj 760 -28 t b b b b, f 12;
#X msg 807 50 0.5 0 1 \, 0 0.5 1 \, 0 0 1 \, 0 1 1 \, 0 1 0 \, 0.5
1 0 \, 1 1 0 \, 1 0.75 0 \, 1 0.5 0 \, 1 0.25 0 \, 1 0 0;
#X obj 516 224 % 12;
#X obj 576 42 cyclone/counter 0 0 12;
#X obj 577 -7 tgl 15 0 empty empty empty 17 7 0 10 -262144 -1 -1 0
1;
#X msg 327 490 open 1;
#X msg 508 379 16 \$1 \$2 \$3;
#X obj 421 135 spigot;
#X obj 454 46 loadbang;
#X msg 454 67 1;
#X obj 453 105 tgl 15 0 empty empty empty 17 7 0 10 -262144 -1 -1 1
1;
#X obj 577 14 metro 200;
#X obj 215 654 netreceive -u -b 8000;
#X obj 215 675 fudiparse;
#X obj 215 696 print;
#X obj 908 183 loadbang;
#X msg 908 204 \; pd dsp 1;
#X msg 69 243 open 1;
#X obj 246 311 r messages;
#X obj 279 351 print;
#X obj 622 148 poly;
#X obj 189 372 speedlim 30;
#X msg 770 101 1 0.6 0.2 \, 1 0.76 0.6 \, 0.9 0.35 0.97 \, 0.8 0.98
0.78 \, 0.05 1 1 \, 1 1 0 \, 0.85 0.7 0.63 \, 1 0 0 \, 0.75 0.45 0.58
\, 0.76 0.4 1 \, 0.2 0.8 0.2 \, 0.04 0.51 0.86;
#X connect 0 0 2 0;
#X connect 0 0 12 0;
#X connect 2 0 3 0;
#X connect 3 0 1 0;
#X connect 4 0 2 0;
#X connect 5 0 4 0;
#X connect 7 0 6 0;
#X connect 7 0 2 0;
#X connect 8 0 7 0;
#X connect 9 0 8 0;
#X connect 10 0 1 0;
#X connect 11 0 8 0;
#X connect 12 0 13 0;
#X connect 14 0 1 0;
#X connect 15 0 17 0;
#X connect 16 0 29 0;
#X connect 17 0 19 0;
#X connect 17 1 20 0;
#X connect 17 2 21 0;
#X connect 18 0 33 0;
#X connect 19 0 18 0;
#X connect 20 0 18 1;
#X connect 21 0 18 2;
#X connect 24 0 22 0;
#X connect 25 0 27 0;
#X connect 26 0 27 0;
#X connect 27 2 49 0;
#X connect 27 3 24 0;
#X connect 29 0 15 0;
#X connect 30 0 16 0;
#X connect 31 0 38 0;
#X connect 32 0 1 0;
#X connect 33 0 0 0;
#X connect 34 0 16 0;
#X connect 35 0 36 0;
#X connect 36 0 37 0;
#X connect 37 0 34 1;
#X connect 38 0 30 0;
#X connect 39 0 40 0;
#X connect 40 0 41 0;
#X connect 42 0 43 0;
#X connect 44 0 1 0;
#X connect 45 0 46 0;
#X connect 45 0 48 0;
#X connect 48 0 0 0;
#X connect 49 0 23 0;
