#N canvas 184 116 829 497 10;
#N canvas 96 92 896 611 hex 0;
#X obj 133 548 outlet;
#X obj 42 13 inlet;
#X obj 396 293 expr if (int($f1 / 16) <= 9 \, int($f1 / 16) + 48 \,
int($f1 / 16) + 55) \; if ($f1 % 16 <= 9 \, int($f1 % 16) + 48 \, int($f1
% 16) + 55);
#X text 363 435 expr if ($f1 / 16 <= 9 \, int($f1 / 16) + 48 \, int($f1
/ 16) + 55) \; if ($f1 % 16 <= 9 \, int($f1 % 16) + 48 \, int($f1 %
16) + 55);
#X obj 298 185 expr if (int($f1 / 16) <= 9 \, int($f1 / 16) + 48 \,
int($f1 / 16) + 55) \; if ($f1 % 16 <= 9 \, int($f1 % 16) + 48 \, int($f1
% 16) + 55);
#X obj 211 128 expr if (int($f1 / 16) <= 9 \, int($f1 / 16) + 48 \,
int($f1 / 16) + 55) \; if ($f1 % 16 <= 9 \, int($f1 % 16) + 48 \, int($f1
% 16) + 55);
#X obj 763 291 expr if (int($f1 / 16) <= 9 \, int($f1 / 16) + 48 \,
int($f1 / 16) + 55) \; if ($f1 % 16 <= 9 \, int($f1 % 16) + 48 \, int($f1
% 16) + 55);
#X obj 138 473 pack f f f f f f f f;
#X obj 23 61 unpack f f f f;
#X connect 1 0 8 0;
#X connect 2 0 7 4;
#X connect 2 1 7 5;
#X connect 4 0 7 2;
#X connect 4 1 7 3;
#X connect 5 0 7 0;
#X connect 5 1 7 1;
#X connect 6 0 7 6;
#X connect 6 1 7 7;
#X connect 7 0 0 0;
#X connect 8 0 5 0;
#X connect 8 1 4 0;
#X connect 8 2 2 0;
#X connect 8 3 6 0;
#X restore 69 108 pd hex;
#X obj 139 211 comport 1 115200;
#X obj 140 158 list append 10;
#X obj 140 179 list trim;
#X obj 140 134 + 48;
#X obj 139 238 print received;
#X floatatom 140 111 5 0 0 0 - - -;
#X obj 185 133 print to;
#X obj 184 110 list fromsymbol;
#X obj 184 87 cyclone/tosymbol;
#X obj 184 64 r lightOut;
#N canvas 0 23 450 300 testmessages 0;
#X msg 204 768 50 49 49 10;
#X msg 186 708 50 49 10;
#X msg 122 864 114 49 100 10;
#X msg 98 1030 103 \$1 100 10;
#X floatatom 90 918 5 0 0 0 - - -;
#X msg 136 672 48 10;
#X obj 136 587 r scene;
#X obj 136 632 sel 0;
#X obj 41 1079 outlet;
#X msg 214 892 0 \, 10;
#X msg 221 977 223;
#X connect 0 0 8 0;
#X connect 1 0 8 0;
#X connect 2 0 8 0;
#X connect 3 0 8 0;
#X connect 4 0 3 0;
#X connect 5 0 8 0;
#X connect 6 0 7 0;
#X connect 7 0 5 0;
#X connect 9 0 8 0;
#X connect 10 0 8 0;
#X restore 205 177 pd testmessages;
#X obj 256 63 r singleOctave;
#X msg 69 243 open 1;
#X floatatom 51 43 5 0 255 0 - - -;
#X floatatom 95 54 5 0 255 0 - - -;
#X floatatom 136 69 5 0 255 0 - - -;
#X obj 7 365 list tosymbol;
#X symbolatom 13 414 10 0 0 0 - - -;
#X obj 258 -30 counter 2 0 255;
#X obj 257 -73 tgl 15 0 empty empty empty 17 7 0 10 -262144 -1 -1 0
1;
#X obj 35 -36 counter 2 0 255;
#X obj 34 -79 tgl 15 0 empty empty empty 17 7 0 10 -262144 -1 -1 0
1;
#X obj 149 -34 counter 2 0 255;
#X obj 148 -77 tgl 15 0 empty empty empty 17 7 0 10 -262144 -1 -1 0
1;
#X obj 149 -57 metro 20;
#X obj 258 -54 metro 15;
#X obj 17 81 pack f f f f;
#X floatatom 12 40 5 0 0 0 - - -;
#X obj 6 5 counter 2 0 15;
#X obj 33 -61 metro 20;
#X obj 3 -52 255;
#X obj 235 20 random 255;
#X obj 310 25 random 255;
#X obj 385 24 random 255;
#X obj 412 170 line 0 10;
#X obj 480 171 line 0 10;
#X obj 547 171 line 0 10;
#X connect 0 0 2 0;
#X connect 0 0 17 0;
#X connect 1 0 5 0;
#X connect 2 0 3 0;
#X connect 3 0 1 0;
#X connect 4 0 2 0;
#X connect 6 0 4 0;
#X connect 8 0 7 0;
#X connect 8 0 2 0;
#X connect 9 0 8 0;
#X connect 10 0 9 0;
#X connect 11 0 1 0;
#X connect 12 0 9 0;
#X connect 13 0 1 0;
#X connect 14 0 27 1;
#X connect 15 0 27 2;
#X connect 16 0 27 3;
#X connect 17 0 18 0;
#X connect 19 0 16 0;
#X connect 20 0 26 0;
#X connect 21 0 14 0;
#X connect 22 0 30 0;
#X connect 23 0 15 0;
#X connect 24 0 25 0;
#X connect 25 0 23 0;
#X connect 26 0 19 0;
#X connect 27 0 0 0;
#X connect 28 0 27 0;
#X connect 30 0 21 0;
#X connect 30 0 29 0;
#X connect 30 0 31 0;
#X connect 30 0 32 0;
#X connect 30 0 33 0;
#X connect 30 0 34 0;
#X connect 30 0 28 0;
#X connect 32 0 14 0;
#X connect 33 0 15 0;
#X connect 34 0 16 0;
