#N canvas 0 25 1590 997 10;
#N canvas 96 92 896 611 hex 0;
#X obj 133 548 outlet;
#X obj 42 13 inlet;
#X obj 396 293 expr if (int($f1 / 16) <= 9 \, int($f1 / 16) + 48 \,
int($f1 / 16) + 55) \; if ($f1 % 16 <= 9 \, int($f1 % 16) + 48 \, int($f1
% 16) + 55);
#X text 363 435 expr if ($f1 / 16 <= 9 \, int($f1 / 16) + 48 \, int($f1
/ 16) + 55) \; if ($f1 % 16 <= 9 \, int($f1 % 16) + 48 \, int($f1 %
16) + 55);
#X obj 298 185 expr if (int($f1 / 16) <= 9 \, int($f1 / 16) + 48 \,
int($f1 / 16) + 55) \; if ($f1 % 16 <= 9 \, int($f1 % 16) + 48 \, int($f1
% 16) + 55);
#X obj 211 128 expr if (int($f1 / 16) <= 9 \, int($f1 / 16) + 48 \,
int($f1 / 16) + 55) \; if ($f1 % 16 <= 9 \, int($f1 % 16) + 48 \, int($f1
% 16) + 55);
#X obj 763 291 expr if (int($f1 / 16) <= 9 \, int($f1 / 16) + 48 \,
int($f1 / 16) + 55) \; if ($f1 % 16 <= 9 \, int($f1 % 16) + 48 \, int($f1
% 16) + 55);
#X obj 138 473 pack f f f f f f f f;
#X obj 23 61 unpack f f f f;
#X connect 1 0 8 0;
#X connect 2 0 7 4;
#X connect 2 1 7 5;
#X connect 4 0 7 2;
#X connect 4 1 7 3;
#X connect 5 0 7 0;
#X connect 5 1 7 1;
#X connect 6 0 7 6;
#X connect 6 1 7 7;
#X connect 7 0 0 0;
#X connect 8 0 5 0;
#X connect 8 1 4 0;
#X connect 8 2 2 0;
#X connect 8 3 6 0;
#X restore 118 90 pd hex;
#X obj 107 127 list append 10;
#X obj 107 148 list trim;
#X obj 103 55 print to;
#X obj 102 32 list fromsymbol;
#X obj 102 9 cyclone/tosymbol;
#X obj 102 -14 r lightOut;
#N canvas 0 23 450 300 testmessages 0;
#X msg 204 768 50 49 49 10;
#X msg 186 708 50 49 10;
#X msg 122 864 114 49 100 10;
#X msg 98 1030 103 \$1 100 10;
#X floatatom 90 918 5 0 0 0 - - -;
#X msg 136 672 48 10;
#X obj 136 587 r scene;
#X obj 136 632 sel 0;
#X obj 41 1079 outlet;
#X msg 214 892 0 \, 10;
#X msg 221 977 223;
#X connect 0 0 8 0;
#X connect 1 0 8 0;
#X connect 2 0 8 0;
#X connect 3 0 8 0;
#X connect 4 0 3 0;
#X connect 5 0 8 0;
#X connect 6 0 7 0;
#X connect 7 0 5 0;
#X connect 9 0 8 0;
#X connect 10 0 8 0;
#X restore 172 146 pd testmessages;
#X obj 174 -15 r singleOctave;
#X obj 229 221 list tosymbol;
#X symbolatom 229 245 10 0 0 0 - - -;
#X msg 218 179 devices;
#X obj 513 248 text get rgbVals;
#X floatatom 516 190 5 0 0 0 - - -;
#X obj 513 283 unpack f f f;
#X obj 498 383 pack f f f, f 17;
#X obj 507 327 * 150;
#X obj 548 328 * 150;
#X obj 587 329 * 150;
#X obj 552 546 text define rgbVals;
#X obj 530 616 text insert rgbVals;
#X msg 551 522 clear;
#X obj 880 -37 loadbang;
#X obj 539 474 bng 15 250 50 0 empty empty empty 17 7 0 10 -262144
-1 -1;
#X obj 482 498 t b b b b, f 12;
#X msg 529 576 0.5 0 1 \, 0 0.5 1 \, 0 0 1 \, 0 1 1 \, 0 1 0 \, 0.5
1 0 \, 1 1 0 \, 1 0.75 0 \, 1 0.5 0 \, 1 0.25 0 \, 1 0 0;
#X obj 516 224 % 12;
#X obj 514 160 cyclone/counter 0 0 12;
#X obj 515 111 tgl 15 0 empty empty empty 17 7 0 10 -262144 -1 -1 0
1;
#X msg 279 179 open 1;
#X obj 578 4 cyclone/speedlim 100;
#X msg 842 507 16 \$1 \$2 \$3;
#X obj 581 134 spigot;
#X obj 614 45 loadbang;
#X msg 614 66 1;
#X obj 613 104 tgl 15 0 empty empty empty 17 7 0 10 -262144 -1 -1 1
1;
#X obj 515 132 metro 200;
#X obj 215 654 netreceive -u -b 8000;
#X obj 215 675 fudiparse;
#X obj 215 696 print;
#X obj 630 709 loadbang;
#X msg 630 730 \; pd dsp 1;
#X msg 40 -13 open 1;
#X obj 503 356 i;
#X obj 542 355 i;
#X obj 588 356 i;
#X obj 566 192 cyclone/scale 60 80 0 150;
#X msg 586 636 1 0.6 0.2 \, 1 0.76 0.6 \, 0.9 0.35 0.97 \, 0.8 0.98
0.78 \, 0.05 1 1 \, 1 1 0 \, 0.85 0.7 0.63 \, 1 0 0 \, 0.75 0.45 0.58
\, 0.76 0.4 1 \, 0.2 0.8 0.2 \, 0.04 0.51 0.86;
#X obj 106 220 comport 0 115200;
#X text 662 314 D;
#X msg 838 346 179 0 0;
#X msg 899 345 179 0 36;
#X text 901 318 D#;
#X msg 975 346 179 0 122;
#X msg 1049 345 140 0 179;
#X text 965 387 F;
#X msg 1126 344 21 0 179;
#X msg 1197 344 0 6 179;
#X msg 1264 344 0 125 179;
#X msg 1345 344 0 179 77;
#X msg 1410 342 3 179 0;
#X msg 1473 346 179 155 0;
#X msg 1548 348 179 12 0;
#X msg 1626 346 179 18 0;
#X obj 807 77 mtof;
#X floatatom 995 23 5 0 0 0 - - -;
#X obj 998 147 select 0 1 2 3 4 5 6 7 8 9 10 11;
#X obj 808 46 + 48;
#X obj 807 98 osc~;
#X obj 1008 287 dac~;
#X obj 855 9 % 12;
#X obj 1003 88 % 12;
#X obj 1132 6 adc~;
#X obj 1132 27 fiddle~ 1024 1 20 3;
#X floatatom 1129 62 5 0 0 0 - - -;
#X obj 807 119 *~ 0.1;
#X obj 950 113 - 2;
#X floatatom 1046 120 5 0 0 0 - - -;
#X obj 1241 64 route 1 2 3 4;
#X floatatom 1223 93 5 0 0 0 - - -;
#X floatatom 1263 104 5 0 0 0 - - -;
#X obj 1422 97 ftom;
#X floatatom 1422 118 5 0 0 0 - - -;
#X obj 1422 138 i;
#X obj 1422 159 - 2;
#X obj 1422 180 % 12;
#X msg 1178 685 179 0 0;
#X msg 1239 684 179 0 36;
#X text 1241 657 D#;
#X msg 1315 685 179 0 122;
#X msg 1389 684 140 0 179;
#X text 1305 726 F;
#X msg 1466 683 21 0 179;
#X msg 1537 683 0 6 179;
#X msg 1604 683 0 125 179;
#X msg 1685 683 0 179 77;
#X msg 1750 681 3 179 0;
#X msg 1813 685 179 155 0;
#X msg 1888 687 179 12 0;
#X msg 1966 685 179 18 0;
#X obj 1338 486 select 0 1 2 3 4 5 6 7 8 9 10 11;
#X obj 1348 626 dac~;
#X floatatom 1422 201 5 0 0 0 - - -;
#X msg 1182 846 32 \$1 \$2 \$3;
#X obj 1182 867 speedlim 12;
#X connect 0 0 1 0;
#X connect 0 0 9 0;
#X connect 1 0 2 0;
#X connect 2 0 48 0;
#X connect 4 0 3 0;
#X connect 4 0 1 0;
#X connect 5 0 4 0;
#X connect 6 0 5 0;
#X connect 7 0 48 0;
#X connect 8 0 5 0;
#X connect 9 0 10 0;
#X connect 11 0 48 0;
#X connect 12 0 14 0;
#X connect 13 0 26 0;
#X connect 14 0 16 0;
#X connect 14 1 17 0;
#X connect 14 2 18 0;
#X connect 15 0 31 0;
#X connect 16 0 43 0;
#X connect 17 0 44 0;
#X connect 18 0 45 0;
#X connect 21 0 19 0;
#X connect 22 0 24 0;
#X connect 23 0 24 0;
#X connect 24 2 25 0;
#X connect 24 3 21 0;
#X connect 25 0 20 0;
#X connect 26 0 12 0;
#X connect 27 0 13 0;
#X connect 28 0 36 0;
#X connect 29 0 48 0;
#X connect 30 0 32 0;
#X connect 31 0 0 0;
#X connect 32 0 13 0;
#X connect 33 0 34 0;
#X connect 34 0 35 0;
#X connect 35 0 32 1;
#X connect 36 0 27 0;
#X connect 37 0 38 0;
#X connect 38 0 39 0;
#X connect 40 0 41 0;
#X connect 42 0 48 0;
#X connect 43 0 15 0;
#X connect 44 0 15 1;
#X connect 45 0 15 2;
#X connect 46 0 18 1;
#X connect 50 0 31 0;
#X connect 51 0 31 0;
#X connect 53 0 31 0;
#X connect 54 0 31 0;
#X connect 56 0 31 0;
#X connect 57 0 31 0;
#X connect 58 0 31 0;
#X connect 59 0 31 0;
#X connect 60 0 31 0;
#X connect 61 0 31 0;
#X connect 62 0 31 0;
#X connect 63 0 31 0;
#X connect 64 0 68 0;
#X connect 65 0 70 0;
#X connect 65 0 76 0;
#X connect 66 0 50 0;
#X connect 66 1 51 0;
#X connect 66 2 53 0;
#X connect 66 3 54 0;
#X connect 66 4 56 0;
#X connect 66 5 57 0;
#X connect 66 6 58 0;
#X connect 66 7 59 0;
#X connect 66 8 60 0;
#X connect 66 9 61 0;
#X connect 66 10 62 0;
#X connect 66 11 63 0;
#X connect 67 0 64 0;
#X connect 68 0 75 0;
#X connect 70 0 67 0;
#X connect 71 0 66 0;
#X connect 71 0 77 0;
#X connect 72 0 73 0;
#X connect 73 0 74 0;
#X connect 73 4 78 0;
#X connect 74 0 65 0;
#X connect 76 0 71 0;
#X connect 78 0 79 0;
#X connect 78 1 80 0;
#X connect 80 0 81 0;
#X connect 81 0 82 0;
#X connect 82 0 83 0;
#X connect 83 0 84 0;
#X connect 84 0 85 0;
#X connect 85 0 102 0;
#X connect 86 0 103 0;
#X connect 87 0 103 0;
#X connect 89 0 103 0;
#X connect 90 0 103 0;
#X connect 92 0 103 0;
#X connect 93 0 103 0;
#X connect 94 0 103 0;
#X connect 95 0 103 0;
#X connect 96 0 103 0;
#X connect 97 0 103 0;
#X connect 98 0 103 0;
#X connect 99 0 103 0;
#X connect 100 0 86 0;
#X connect 100 1 87 0;
#X connect 100 2 89 0;
#X connect 100 3 90 0;
#X connect 100 4 92 0;
#X connect 100 5 93 0;
#X connect 100 6 94 0;
#X connect 100 7 95 0;
#X connect 100 8 96 0;
#X connect 100 9 97 0;
#X connect 100 10 98 0;
#X connect 100 11 99 0;
#X connect 102 0 100 0;
#X connect 103 0 104 0;
#X connect 104 0 0 0;
