#N canvas 109 489 599 535 12;
#X obj 72 504 s messages;
#X obj 113 51 midiin;
#X obj 113 104 cyclone/midiparse;
#X obj 113 136 unpack, f 8;
#X floatatom 114 211 5 0 0 0 - - -;
#X floatatom 157 212 5 0 0 0 - - -;
#X floatatom 207 212 5 0 0 0 - - -;
#X obj 45 259 * 18;
#X obj 73 454 pack f f f f;
#X obj 172 269 text get rgbVals;
#X obj 157 235 % 12;
#X obj 172 293 unpack f f f;
#X obj 168 348 *;
#X obj 207 235 / 127;
#X obj 92 424 i;
#X obj 130 423 i;
#X obj 166 423 i;
#X obj 132 346 *;
#X obj 95 344 *;
#X obj 280 315 print message;
#X obj 91 384 * 255;
#X obj 136 386 * 255;
#X obj 182 386 * 255;
#X obj 85 292 - 2;
#X obj 42 374 bng 15 250 50 0 empty empty empty 17 7 0 10 -262144 -1
-1;
#X msg 261 366 0;
#X floatatom 254 84 5 0 0 0 - - -;
#X obj 36 221 + 1;
#X obj 113 166 poly 1 1;
#X connect 1 0 2 0;
#X connect 2 0 3 0;
#X connect 3 0 26 0;
#X connect 3 0 28 0;
#X connect 3 1 28 1;
#X connect 4 0 27 0;
#X connect 5 0 10 0;
#X connect 6 0 13 0;
#X connect 7 0 23 0;
#X connect 8 0 0 0;
#X connect 9 0 11 0;
#X connect 10 0 9 0;
#X connect 11 0 18 0;
#X connect 11 1 17 0;
#X connect 11 2 12 0;
#X connect 12 0 22 0;
#X connect 13 0 12 1;
#X connect 13 0 17 1;
#X connect 13 0 18 1;
#X connect 14 0 8 1;
#X connect 15 0 8 2;
#X connect 16 0 8 3;
#X connect 17 0 21 0;
#X connect 18 0 20 0;
#X connect 20 0 14 0;
#X connect 21 0 15 0;
#X connect 22 0 16 0;
#X connect 23 0 8 0;
#X connect 24 0 8 0;
#X connect 27 0 7 0;
#X connect 28 0 4 0;
#X connect 28 1 5 0;
#X connect 28 2 6 0;
