#N canvas 109 124 1130 643 10;
#X msg 163 574 73 255 \, 14 255;
#X floatatom 37 349 5 0 0 0 - - -;
#X floatatom -326 137 5 0 0 0 - - -;
#X obj -474 166 i;
#X obj -474 71 env~;
#X obj 29 24 netreceive -u -b;
#X obj 29 -25 loadbang;
#X msg 29 1 listen 8000;
#X obj 29 51 oscparse;
#X obj 27 75 route list;
#X floatatom 51 241 5 0 0 0 - - -;
#X obj 52 215 unpack f f f, f 33;
#X obj 52 270 clip 0 255;
#X obj 52 297 / 255;
#X obj 37 324 *;
#X floatatom -255 642 5 0 0 0 - - -;
#X obj -474 142 * 10;
#X msg 601 376 77 \$1;
#X floatatom 601 350 5 0 0 0 - - -;
#X obj -148 71 i;
#X obj -159 103 clip 0 255;
#X obj -248 86 i;
#X obj -248 112 clip 0 255;
#X obj -249 63 * 2;
#X obj -149 48 * 2;
#X obj -250 35 - 55;
#X obj -150 20 - 55;
#X obj -474 118 - 55;
#X floatatom 134 359 5 0 0 0 - - -;
#X floatatom 149 254 5 0 0 0 - - -;
#X obj 150 283 clip 0 255;
#X obj 149 310 / 255;
#X obj 134 333 *;
#X floatatom 234 354 5 0 0 0 - - -;
#X floatatom 248 246 5 0 0 0 - - -;
#X obj 249 275 clip 0 255;
#X obj 248 302 / 255;
#X obj 234 330 *;
#X obj -474 188 clip 0 255;
#X obj 507 506 loadbang;
#X obj 69 123 tgl 15 0 empty empty empty 17 7 0 10 -262144 -1 -1 0
1;
#X obj 69 146 * 255;
#X obj 25 134 t b a;
#X obj -8 215 i;
#X obj -8 171 bng 15 250 50 0 empty empty empty 17 7 0 10 -262144 -1
-1;
#X obj -474 215 change;
#X obj 191 139 bng 15 250 50 0 empty empty empty 17 7 0 10 -262144
-1 -1;
#X obj 191 189 print connectbang;
#X text -383 350 note checker;
#X msg 507 536 1;
#X text 536 538 should go both ways;
#X msg 483 562 \; pd dsp \$1;
#X obj 27 97 route rgb onoff connect audio, f 55;
#X obj 483 537 tgl 15 0 empty empty empty 17 7 0 10 -262144 -1 -1 1
1;
#X obj 483 481 r dspOnOff;
#X obj 271 124 s dspOnOff;
#X obj 302 189 s r dmx_all;
#X msg 37 372 r \$1;
#X msg 134 380 g \$1;
#X msg 235 375 b \$1;
#X obj 96 476 s dmx_all;
#X msg 302 167 o 255;
#X obj 69 169 s testSignal;
#X obj -440 142 r testSignal;
#N canvas 830 126 450 300 filter 1;
#X obj -312 256 outlet;
#X obj -322 59 cyclone/svf~ 100, f 33;
#X floatatom -322 124 5 0 0 0 - - -;
#X obj -322 93 env~;
#X floatatom -258 122 5 0 0 0 - - -;
#X obj -257 96 env~;
#X obj -257 235 outlet;
#X obj -323 27 inlet~;
#X obj -320 174 rampsmooth~ 0 10000;
#X obj -319 146 sig~;
#X floatatom -318 228 5 0 0 0 - - -;
#X obj -318 197 env~;
#X connect 1 0 3 0;
#X connect 1 1 5 0;
#X connect 2 0 9 0;
#X connect 3 0 2 0;
#X connect 4 0 6 0;
#X connect 5 0 4 0;
#X connect 7 0 1 0;
#X connect 8 0 11 0;
#X connect 9 0 8 0;
#X connect 10 0 0 0;
#X connect 11 0 10 0;
#X restore -98 455 pd filter;
#N canvas 474 85 957 693 pitch_tracker 1;
#X obj -240 45 fiddle~;
#X floatatom -241 86 5 0 0 0 - - -;
#X obj -237 579 spigot, f 143;
#X obj -237 611 outlet;
#X obj -241 136 i;
#X obj -241 158 % 12;
#X obj 618 552 inlet;
#X msg -238 501 r \$1 \, g \$1 \, b \$1;
#X obj -238 411 cyclone/coll @embed 1;
#C flags 1 0;
#C 0 200 0 100;
#C 1 155 100 50;
#C 2 255 0 255;
#C 3 50 0 255;
#C 4 0 100 155;
#C 5 255 0 255;
#C 6 0 0 0;
#C 7 255 100 0;
#C 8 255 30 255;
#C 9 0 0 255;
#C 10 0 100 255;
#C 11 255 0 255;
#C restore;
#X obj 32 123 inlet;
#X obj -115 503 print rgb;
#X floatatom -211 357 5 0 0 0 - - -;
#X obj 43 459 r rgb;
#X obj -17 554 print list;
#X obj 241 538 s rgb;
#X obj -21 511 list trim;
#X obj -20 483 list append;
#X msg -19 327 2;
#X msg 238 498 255 0 255;
#X msg -100 322 0;
#X msg -56 327 1;
#X msg 26 328 3;
#X msg 66 329 4;
#X msg 110 334 5;
#X msg 147 334 6;
#X msg 193 335 7;
#X msg 233 338 8;
#X msg 277 343 9;
#X msg 314 343 10;
#X msg 360 344 11;
#X obj -240 18 inlet~;
#X floatatom -208 233 5 0 0 0 - - -;
#X obj -193 543;
#X connect 0 0 1 0;
#X connect 1 0 4 0;
#X connect 2 0 3 0;
#X connect 4 0 5 0;
#X connect 5 0 8 0;
#X connect 5 0 31 0;
#X connect 6 0 2 1;
#X connect 7 0 2 0;
#X connect 8 0 7 0;
#X connect 8 0 10 0;
#X connect 11 0 8 0;
#X connect 12 0 16 1;
#X connect 15 0 8 0;
#X connect 16 0 15 0;
#X connect 17 0 16 0;
#X connect 18 0 14 0;
#X connect 19 0 16 0;
#X connect 20 0 16 0;
#X connect 21 0 16 0;
#X connect 22 0 16 0;
#X connect 23 0 16 0;
#X connect 24 0 16 0;
#X connect 25 0 16 0;
#X connect 26 0 16 0;
#X connect 27 0 16 0;
#X connect 28 0 16 0;
#X connect 29 0 16 0;
#X connect 30 0 0 0;
#X restore 35 584 pd pitch_tracker;
#X text 432 105 Jo notes for 06/02/19 Explore one piece of music \,
that has 4 parts \, 1st part is solemn/still 2nd part is reflective/sad
turning to hopeful where audience interactive lights come in \, look
at interactive lights and stage lighting. 3rd part is a rhythmic/joyous
interlude 4th part is joyous/celebration Explore one piece of music
that has 2 parts \, 1st part powerful/echoing short intro 2nd part
dark repetitive bass and flowing/mysterious major/minor melodies and
explore this with scarves and ribbons and light. I would also like
to look at the way light interacts with the light reflective glitter
on my cello \,;
#X obj -26 136 s rgb;
#X obj -161 335 pipe;
#X obj 204 541 s midi;
#X obj 204 515 midiformat, f 38;
#X obj -473 247 s input1;
#X obj -70 190 r input1;
#X obj 191 160 t b b;
#X obj -282 383 s toSerial;
#X msg -298 239 255;
#X floatatom -252 709 5 0 0 0 - - -;
#X msg -213 249 255;
#X floatatom -200 281 5 0 0 0 - - -;
#X msg -242 306 24 \$1;
#X msg -137 243 255;
#X floatatom -124 275 5 0 0 0 - - -;
#X msg -166 300 20 \$1;
#X msg -60 261 255;
#X floatatom -47 293 5 0 0 0 - - -;
#X msg -87 390 5 \$1;
#X obj -305 431 adc~ 2;
#X obj -474 45 adc~ 1;
#X obj -456 289 vsl 15 128 0 127 0 0 empty empty empty 0 -9 0 10 -262144
-1 -1 2483 1;
#X floatatom -305 481 5 0 0 0 - - -;
#X obj -305 457 env~;
#X obj -254 463 vsl 15 128 0 127 0 0 empty empty empty 0 -9 0 10 -262144
-1 -1 1343 1;
#X obj -255 662 i;
#X floatatom -467 609 5 0 0 0 - - -;
#X obj -467 479 * 2;
#X obj -466 634 i;
#X obj -253 687 * 4;
#X msg -294 323 50 \$1;
#X floatatom -465 661 5 0 0 0 - - -;
#X obj -361 296 line;
#X msg -367 264 \$1 10;
#X obj -333 95 dac~;
#X obj -282 39 adc~ 2;
#X obj -347 31 adc~ 1;
#X obj -466 454 clip 0 255;
#X obj -256 620 clip 0 255;
#X obj -306 819 s toSerial;
#X obj -465 432 - 80;
#X obj -390 492 vsl 15 128 0 127 0 0 empty empty empty 0 -9 0 10 -262144
-1 -1 0 1;
#X msg -155 394 255;
#X floatatom -142 426 5 0 0 0 - - -;
#X msg -184 451 3 \$1;
#X msg -306 796 56 \$1;
#X obj -331 765 line;
#X obj -465 687 * 8;
#X obj 63 622 route r g b;
#X msg 59 681 17 \$1;
#X obj 61 708 s toSerial;
#X obj 29 646 * 3;
#X obj -255 598 - 20;
#X msg -313 734 \$1 100;
#X obj -106 555 s toSerial;
#X msg -106 532 14 \$1;
#X obj 154 746 s toSerial;
#X obj 33 556 adc~;
#X msg 194 682 15 \$1;
#X msg 147 680 11 \$1;
#X msg 244 681 12 \$1;
#X connect 1 0 57 0;
#X connect 2 0 27 0;
#X connect 2 0 88 0;
#X connect 3 0 38 0;
#X connect 4 0 2 0;
#X connect 4 0 64 0;
#X connect 5 0 8 0;
#X connect 6 0 7 0;
#X connect 7 0 5 0;
#X connect 8 0 9 0;
#X connect 9 0 52 0;
#X connect 10 0 12 0;
#X connect 11 0 10 0;
#X connect 11 1 29 0;
#X connect 11 2 34 0;
#X connect 12 0 13 0;
#X connect 13 0 14 1;
#X connect 14 0 1 0;
#X connect 15 0 92 0;
#X connect 16 0 3 0;
#X connect 18 0 17 0;
#X connect 19 0 20 0;
#X connect 21 0 22 0;
#X connect 23 0 21 0;
#X connect 24 0 19 0;
#X connect 25 0 23 0;
#X connect 26 0 24 0;
#X connect 27 0 16 0;
#X connect 28 0 58 0;
#X connect 29 0 30 0;
#X connect 30 0 31 0;
#X connect 31 0 32 1;
#X connect 32 0 28 0;
#X connect 33 0 59 0;
#X connect 34 0 35 0;
#X connect 35 0 36 0;
#X connect 36 0 37 1;
#X connect 37 0 33 0;
#X connect 38 0 45 0;
#X connect 39 0 49 0;
#X connect 40 0 41 0;
#X connect 41 0 62 0;
#X connect 42 0 44 0;
#X connect 42 1 11 0;
#X connect 43 0 14 0;
#X connect 43 0 32 0;
#X connect 43 0 37 0;
#X connect 44 0 43 0;
#X connect 45 0 71 0;
#X connect 46 0 73 0;
#X connect 49 0 53 0;
#X connect 52 0 42 0;
#X connect 52 0 67 0;
#X connect 52 1 40 0;
#X connect 52 2 46 0;
#X connect 52 3 55 0;
#X connect 53 0 51 0;
#X connect 54 0 53 0;
#X connect 57 0 60 0;
#X connect 58 0 60 0;
#X connect 59 0 60 0;
#X connect 61 0 56 0;
#X connect 63 0 3 0;
#X connect 64 0 122 0;
#X connect 65 0 115 0;
#X connect 70 0 69 0;
#X connect 72 0 43 0;
#X connect 73 0 47 0;
#X connect 73 1 61 0;
#X connect 75 0 97 0;
#X connect 76 0 120 0;
#X connect 77 0 79 0;
#X connect 78 0 79 0;
#X connect 79 0 74 0;
#X connect 80 0 82 0;
#X connect 81 0 82 0;
#X connect 82 0 74 0;
#X connect 83 0 85 0;
#X connect 84 0 85 0;
#X connect 85 0 74 0;
#X connect 86 0 90 0;
#X connect 87 0 4 0;
#X connect 88 0 107 0;
#X connect 88 0 118 0;
#X connect 89 0 91 0;
#X connect 90 0 89 0;
#X connect 91 0 119 0;
#X connect 92 0 96 0;
#X connect 93 0 95 0;
#X connect 94 0 93 0;
#X connect 95 0 98 0;
#X connect 96 0 76 0;
#X connect 97 0 74 0;
#X connect 98 0 114 0;
#X connect 99 0 97 0;
#X connect 100 0 99 0;
#X connect 102 0 101 1;
#X connect 103 0 101 0;
#X connect 104 0 94 0;
#X connect 105 0 15 0;
#X connect 107 0 104 0;
#X connect 109 0 111 0;
#X connect 110 0 111 0;
#X connect 111 0 74 0;
#X connect 112 0 106 0;
#X connect 113 0 112 0;
#X connect 114 0 100 0;
#X connect 115 0 116 0;
#X connect 115 0 126 0;
#X connect 115 1 125 0;
#X connect 115 2 127 0;
#X connect 116 0 117 0;
#X connect 118 0 116 0;
#X connect 119 0 105 0;
#X connect 120 0 113 0;
#X connect 122 0 121 0;
#X connect 124 0 65 0;
#X connect 125 0 123 0;
#X connect 126 0 123 0;
#X connect 127 0 123 0;
