#N canvas 101 52 1130 643 10;
#X msg 163 574 73 255 \, 14 255;
#X floatatom 37 349 5 0 0 0 - - -;
#X obj -474 45 adc~;
#X floatatom -474 95 5 0 0 0 - - -;
#X obj -474 166 i;
#X obj -474 71 env~;
#X obj 29 24 netreceive -u -b;
#X obj 29 -25 loadbang;
#X msg 29 1 listen 8000;
#X obj 29 51 oscparse;
#X obj 27 75 route list;
#X floatatom 51 241 5 0 0 0 - - -;
#X obj 52 215 unpack f f f, f 33;
#X obj 52 270 clip 0 255;
#X obj 52 297 / 255;
#X obj 37 324 *;
#X floatatom -404 460 5 0 0 0 - - -;
#X obj -474 142 * 10;
#X msg 601 376 77 \$1;
#X floatatom 601 350 5 0 0 0 - - -;
#X obj -148 71 i;
#X obj -159 103 clip 0 255;
#X obj -248 86 i;
#X obj -248 112 clip 0 255;
#X obj -249 63 * 2;
#X obj -149 48 * 2;
#X obj -250 35 - 55;
#X obj -150 20 - 55;
#X obj -474 118 - 55;
#X floatatom 134 359 5 0 0 0 - - -;
#X floatatom 149 254 5 0 0 0 - - -;
#X obj 150 283 clip 0 255;
#X obj 149 310 / 255;
#X obj 134 333 *;
#X floatatom 234 354 5 0 0 0 - - -;
#X floatatom 248 246 5 0 0 0 - - -;
#X obj 249 275 clip 0 255;
#X obj 248 302 / 255;
#X obj 234 330 *;
#X obj -474 188 clip 0 255;
#X obj 507 506 loadbang;
#X obj 69 123 tgl 15 0 empty empty empty 17 7 0 10 -262144 -1 -1 0
1;
#X obj 69 146 * 255;
#X obj 25 134 t b a;
#X obj -8 215 i;
#X obj -8 171 bng 15 250 50 0 empty empty empty 17 7 0 10 -262144 -1
-1;
#X obj -474 215 change;
#X obj 191 139 bng 15 250 50 0 empty empty empty 17 7 0 10 -262144
-1 -1;
#X obj 191 189 print connectbang;
#X text -383 350 note checker;
#X msg 507 536 1;
#X text 536 538 should go both ways;
#X msg 483 562 \; pd dsp \$1;
#X obj 27 97 route rgb onoff connect audio, f 55;
#X obj 483 537 tgl 15 0 empty empty empty 17 7 0 10 -262144 -1 -1 1
1;
#X obj 483 481 r dspOnOff;
#X obj 271 124 s dspOnOff;
#X obj 302 189 s r dmx_all;
#X msg 37 372 r \$1;
#X msg 134 380 g \$1;
#X msg 235 375 b \$1;
#X obj 96 476 s dmx_all;
#X msg 302 167 o 255;
#X obj 69 169 s testSignal;
#X obj -440 142 r testSignal;
#N canvas 830 126 450 300 filter 0;
#X obj -324 94 inlet;
#X obj -323 235 outlet;
#X obj -323 126 cyclone/svf~ 100, f 33;
#X floatatom -323 191 5 0 0 0 - - -;
#X obj -323 160 env~;
#X floatatom -259 189 5 0 0 0 - - -;
#X obj -258 163 env~;
#X obj -257 235 outlet;
#X connect 0 0 2 0;
#X connect 2 0 4 0;
#X connect 2 1 6 0;
#X connect 3 0 1 0;
#X connect 4 0 3 0;
#X connect 5 0 7 0;
#X connect 6 0 5 0;
#X restore -349 186 pd filter;
#N canvas 90 85 957 693 pitch_tracker 0;
#X obj -240 45 fiddle~;
#X floatatom -241 86 5 0 0 0 - - -;
#X obj -240 18 inlet;
#X obj -237 579 spigot, f 143;
#X obj -237 611 outlet;
#X obj -241 136 i;
#X obj -241 158 % 12;
#X obj -241 181 == 0;
#X obj 618 552 inlet;
#X msg -238 501 r \$1 \, g \$1 \, b \$1;
#X obj -238 411 cyclone/coll @embed 1;
#C flags 1 0;
#C 0 0 0 0;
#C 1 255 0 0;
#C 2 255 0 255;
#C restore;
#X obj 32 123 inlet;
#X obj -115 503 print rgb;
#X floatatom -211 357 5 0 0 0 - - -;
#X obj 43 459 r rgb;
#X obj -17 554 print list;
#X obj 241 538 s rgb;
#X obj -21 511 list trim;
#X obj -20 483 list append;
#X msg -19 327 2;
#X msg 238 498 255 0 255;
#X msg -100 322 0;
#X msg -56 327 1;
#X msg 26 328 3;
#X msg 66 329 4;
#X msg 110 334 5;
#X msg 147 334 6;
#X msg 193 335 7;
#X msg 233 338 8;
#X msg 277 343 9;
#X msg 314 343 10;
#X msg 360 344 11;
#X connect 0 0 1 0;
#X connect 1 0 5 0;
#X connect 2 0 0 0;
#X connect 3 0 4 0;
#X connect 5 0 6 0;
#X connect 6 0 7 0;
#X connect 7 0 10 0;
#X connect 8 0 3 1;
#X connect 9 0 3 0;
#X connect 10 0 9 0;
#X connect 10 0 12 0;
#X connect 13 0 10 0;
#X connect 14 0 18 1;
#X connect 17 0 10 0;
#X connect 18 0 17 0;
#X connect 19 0 18 0;
#X connect 20 0 16 0;
#X connect 21 0 18 0;
#X connect 22 0 18 0;
#X connect 23 0 18 0;
#X connect 24 0 18 0;
#X connect 25 0 18 0;
#X connect 26 0 18 0;
#X connect 27 0 18 0;
#X connect 28 0 18 0;
#X connect 29 0 18 0;
#X connect 30 0 18 0;
#X connect 31 0 18 0;
#X restore -260 208 pd pitch_tracker;
#X text -410 520 Jo notes for 06/02/19 Explore one piece of music \,
that has 4 parts \, 1st part is solemn/still 2nd part is reflective/sad
turning to hopeful where audience interactive lights come in \, look
at interactive lights and stage lighting. 3rd part is a rhythmic/joyous
interlude 4th part is joyous/celebration Explore one piece of music
that has 2 parts \, 1st part powerful/echoing short intro 2nd part
dark repetitive bass and flowing/mysterious major/minor melodies and
explore this with scarves and ribbons and light. I would also like
to look at the way light interacts with the light reflective glitter
on my cello \,;
#X obj -26 136 s rgb;
#X obj -161 335 pipe;
#X obj 204 541 s midi;
#X obj 204 515 midiformat, f 38;
#X obj -473 247 s input1;
#X obj -70 190 r input1;
#X obj 191 160 t b b;
#X connect 1 0 58 0;
#X connect 2 0 5 0;
#X connect 3 0 28 0;
#X connect 4 0 39 0;
#X connect 5 0 3 0;
#X connect 6 0 9 0;
#X connect 7 0 8 0;
#X connect 8 0 6 0;
#X connect 9 0 10 0;
#X connect 10 0 53 0;
#X connect 11 0 13 0;
#X connect 12 0 11 0;
#X connect 12 1 30 0;
#X connect 12 2 35 0;
#X connect 13 0 14 0;
#X connect 14 0 15 1;
#X connect 15 0 1 0;
#X connect 17 0 4 0;
#X connect 19 0 18 0;
#X connect 20 0 21 0;
#X connect 22 0 23 0;
#X connect 24 0 22 0;
#X connect 25 0 20 0;
#X connect 26 0 24 0;
#X connect 27 0 25 0;
#X connect 28 0 17 0;
#X connect 29 0 59 0;
#X connect 30 0 31 0;
#X connect 31 0 32 0;
#X connect 32 0 33 1;
#X connect 33 0 29 0;
#X connect 34 0 60 0;
#X connect 35 0 36 0;
#X connect 36 0 37 0;
#X connect 37 0 38 1;
#X connect 38 0 34 0;
#X connect 39 0 46 0;
#X connect 40 0 50 0;
#X connect 41 0 42 0;
#X connect 42 0 63 0;
#X connect 43 0 45 0;
#X connect 43 1 12 0;
#X connect 44 0 15 0;
#X connect 44 0 33 0;
#X connect 44 0 38 0;
#X connect 45 0 44 0;
#X connect 46 0 72 0;
#X connect 47 0 74 0;
#X connect 50 0 54 0;
#X connect 53 0 43 0;
#X connect 53 0 68 0;
#X connect 53 1 41 0;
#X connect 53 2 47 0;
#X connect 53 3 56 0;
#X connect 54 0 52 0;
#X connect 55 0 54 0;
#X connect 58 0 61 0;
#X connect 59 0 61 0;
#X connect 60 0 61 0;
#X connect 62 0 57 0;
#X connect 64 0 4 0;
#X connect 71 0 70 0;
#X connect 73 0 44 0;
#X connect 74 0 48 0;
#X connect 74 1 62 0;
