#N canvas 458 58 1280 755 10;
#X obj 60 378 netreceive -u -b;
#X obj 60 399 oscparse;
#X obj 60 422 route list;
#X obj 60 472 route test;
#X floatatom 331 688 5 0 0 0 - - -;
#X obj 215 947 comport 1 115200;
#X obj 216 894 list append 10;
#X obj 216 915 list trim;
#X obj 216 870 + 48;
#X obj 70 450 print rcv;
#X obj 60 337 loadbang;
#X obj 1280 476 im.output;
#X obj 1301 415 im.volume 0.1;
#X obj 1300 441 im.echo 500 30%;
#X floatatom 259 439 5 0 0 0 - - -;
#X obj 331 576 change;
#X obj 331 531 i;
#X obj 331 553 % 12;
#X obj 259 461 sel 0;
#X obj 566 789 mb-unit 1;
#X obj 629 790 mb-unit 2;
#X obj 565 812 mb-unit 3;
#X obj 628 812 mb-unit 4;
#X obj 565 834 mb-unit 5;
#X obj 628 835 mb-unit 6;
#X obj 564 857 mb-unit 7;
#X obj 627 857 mb-unit 8;
#X obj 553 755 pack f f f, f 15;
#X floatatom 553 653 5 0 0 0 - - -;
#X obj 1277 381 im.sinesynth;
#X text 637 618 Channels to send to mix;
#N canvas 115 205 450 300 sun 0;
#X obj 45 25 r sun;
#X obj 44 132 print sun;
#X obj 149 65 % 12;
#X obj 149 86 sel 2;
#X obj 148 130 bng 15 250 50 0 empty empty empty 17 7 0 10 -262144
-1 -1;
#X msg 146 167 orange;
#X text 365 11 c red;
#X text 365 24 d orange;
#X text 364 37 e yellow;
#X text 363 50 f green;
#X text 361 61 g cyan;
#X text 364 71 a blue;
#X text 363 81 b purple;
#X obj 237 208 vline~;
#X msg 232 163 1 100 \, 0 1000 100;
#X connect 0 0 1 0;
#X connect 0 0 2 0;
#X connect 2 0 3 0;
#X connect 3 0 4 0;
#X connect 4 0 14 0;
#X connect 14 0 13 0;
#X restore 714 644 pd sun;
#X obj 704 813 s sun;
#X obj 704 790 spigot;
#X obj 737 771 tgl 15 0 empty empty empty 17 7 0 10 -262144 -1 -1 0
1;
#X obj 287 485 moses 40;
#X msg 60 357 listen 2321;
#X text 1621 696 192.168.1.213;
#X obj 64 1556 noteout 10;
#X obj 64 1481 tgl 15 0 empty empty empty 17 7 0 10 -262144 -1 -1 0
1;
#X obj 64 1505 * 127;
#X obj 64 1457 metro 100;
#X obj 64 1432 tgl 15 0 empty empty empty 17 7 0 10 -262144 -1 -1 0
1;
#X floatatom 90 1481 5 0 0 0 - - -;
#X msg 513 696 clear;
#X msg 64 1530 73 \$1;
#X obj 59 244 loadbang;
#X obj 59 286 s toggleEmu;
#X obj 59 266 tgl 15 0 empty empty empty 17 7 0 10 -262144 -1 -1 1
1;
#X obj 523 724 + 4;
#X obj 523 745 % 8;
#X obj 523 767 + 1;
#X msg 441 163 sun;
#X msg 476 163 back;
#X msg 514 162 bugs;
#X msg 551 161 sophie;
#X obj 65 1238 osc~ 0.1;
#X obj 64 1315 snapshot~;
#X obj 185 1267 metro 100;
#X obj 145 1216 tgl 15 0 empty empty empty 17 7 0 10 -262144 -1 -1
0 1;
#X obj 65 1263 +~ 1;
#X obj 65 1284 /~ 2;
#X floatatom 63 1336 5 0 0 0 - - -;
#X obj 111 1366 mb-lfo 2;
#X floatatom 63 1210 5 0 0 0 - - -;
#X obj 60 1366 mb-lfo 1;
#X msg 64 1188 0.01;
#X obj 175 1367 mb-lfo 3;
#X obj 226 1367 mb-lfo 4;
#X obj 62 1396 mb-lfo 5;
#X obj 113 1396 mb-lfo 6;
#X obj 177 1397 mb-lfo 7;
#X obj 228 1396 mb-lfo 8;
#X obj 145 1267 sel 0;
#X msg 145 1288 0;
#X obj 144 1242 t f f, f 8;
#X obj 501 350 spigot, f 20;
#X obj 617 330 tgl 15 0 empty empty empty 17 7 0 10 -262144 -1 -1 0
1;
#X obj 617 285 r scene;
#X obj 144 1147 r scene;
#X obj 617 308 == 3;
#X floatatom 502 373 5 0 0 0 - - -;
#X obj 501 328 r singleOctave;
#X obj 331 709 s singleOctave;
#X obj 144 1168 == 1;
#X text 431 484 input id 1;
#X text 431 514 input id 2;
#X text 431 543 input id 3;
#X text 429 573 input id 4;
#X obj 1263 1573 osc~ 0.1;
#X obj 1262 1650 snapshot~;
#X obj 1476 1654 metro 100;
#X obj 1429 1580 tgl 15 0 empty empty empty 17 7 0 10 -258113 -1 -1
0 1;
#X obj 1263 1598 +~ 1;
#X obj 1263 1619 /~ 2;
#X floatatom 1261 1671 5 0 0 0 - - -;
#X floatatom 1263 1551 5 0 0 0 - - -;
#X obj 1429 1631 sel 0;
#X msg 1429 1652 0;
#X obj 1428 1606 t f f, f 8;
#X obj 1428 1533 r scene;
#X obj 1428 1553 == 4;
#X obj 1257 1735 mb_lfo_var 1;
#X obj 1395 1730 mb_lfo_var 2;
#X obj 1459 1731 mb_lfo_var 3;
#X obj 1547 1729 mb_lfo_var 4;
#X obj 1264 1760 mb_lfo_var 5;
#X obj 1349 1761 mb_lfo_var 6;
#X obj 1437 1761 mb_lfo_var 7;
#X obj 1547 1759 mb_lfo_var 8;
#X msg 1263 1529 0.4;
#X obj 1339 1575 osc~ 0.1;
#X obj 1338 1652 snapshot~;
#X obj 1339 1600 +~ 1;
#X obj 1339 1621 /~ 2;
#X floatatom 1337 1673 5 0 0 0 - - -;
#X floatatom 1338 1551 5 0 0 0 - - -;
#X msg 1338 1526 0.2;
#X text 57 78 192.168.1.213;
#X obj 1476 385 interactive-combined-inputs 1;
#X obj 1470 422 interactive-combined-inputs 2;
#X obj 1471 452 interactive-combined-inputs 3;
#X obj 1474 484 interactive-combined-inputs 4;
#X obj 1468 518 interactive-combined-inputs 5;
#X obj 1465 547 interactive-combined-inputs 6;
#X obj 1463 576 interactive-combined-inputs 7;
#X obj 1459 609 interactive-combined-inputs 8;
#X floatatom 1393 348 5 0 0 0 - - -;
#X floatatom 1492 362 5 0 0 0 - - -;
#X floatatom 1583 317 5 0 0 0 - - -;
#X floatatom 1627 323 5 0 0 0 - - -;
#X obj 1263 1496 loadbang;
#X obj 64 1163 loadbang;
#X obj 1406 218 spigot, f 20;
#X obj 1522 198 tgl 15 0 empty empty empty 17 7 0 10 -4032 -1 -1 0
1;
#X obj 1522 153 r scene;
#X obj 1522 176 == 5;
#X obj 293 1239 osc~ 0.1;
#X obj 292 1316 snapshot~;
#X obj 413 1268 metro 100;
#X obj 373 1217 tgl 15 0 empty empty empty 17 7 0 10 -262144 -1 -1
0 1;
#X obj 293 1264 +~ 1;
#X obj 293 1285 /~ 2;
#X floatatom 291 1337 5 0 0 0 - - -;
#X obj 339 1367 mb-lfo 2;
#X floatatom 291 1211 5 0 0 0 - - -;
#X obj 288 1367 mb-lfo 1;
#X msg 292 1189 0.01;
#X obj 403 1368 mb-lfo 3;
#X obj 454 1368 mb-lfo 4;
#X obj 290 1397 mb-lfo 5;
#X obj 341 1397 mb-lfo 6;
#X obj 405 1398 mb-lfo 7;
#X obj 456 1397 mb-lfo 8;
#X obj 373 1268 sel 0;
#X msg 373 1289 0;
#X obj 372 1243 t f f, f 8;
#X obj 372 1170 r scene;
#X obj 292 1164 loadbang;
#X obj 373 1191 == 6;
#X obj 259 418 spigot;
#X obj 291 397 tgl 15 0 empty empty empty 17 7 0 10 -262144 -1 -1 0
1;
#X obj 376 662 + 72;
#X obj 321 947 print myNumber;
#X obj 215 974 print received;
#X floatatom 216 847 5 0 0 0 - - -;
#X obj 261 869 print to;
#X obj 260 846 list fromsymbol;
#X obj 260 823 cyclone/tosymbol;
#X obj 260 800 r lightOut;
#X obj 553 672 makenote 0.1 20;
#X obj 397 1583 send lightOut;
#N canvas 614 450 450 300 randomiser 0;
#X obj 1145 57 metro 100;
#X obj 1219 105 + 3;
#X floatatom 1224 75 5 0 0 0 - - -;
#X floatatom 1199 12 5 0 0 0 - - -;
#X obj 1099 154 outlet;
#X obj 1158 -8 inlet;
#X obj 1100 128 cyclone/counter 2 1 2;
#X connect 0 0 6 0;
#X connect 1 0 6 4;
#X connect 2 0 1 0;
#X connect 2 0 6 2;
#X connect 3 0 0 1;
#X connect 5 0 0 0;
#X connect 6 0 4 0;
#X restore 552 619 pd randomiser;
#X obj 532 1285 adc~;
#X obj 532 1310 *~;
#X obj 576 1282 tgl 15 0 empty empty empty 17 7 0 10 -262144 -1 -1
1 1;
#X obj 576 1255 loadbang;
#X obj 532 1332 env~;
#X obj 532 1360 i;
#X obj 533 1400 % 8;
#X floatatom 533 1428 5 0 0 0 - - -;
#X obj 532 1380 / 4;
#X obj 532 1506 * 12;
#X obj 532 1480 + 1;
#X text 1348 1498 bedbugs;
#X obj 566 1513 tgl 15 0 empty empty empty 17 7 0 10 -258113 -1 -1
0 1;
#X obj 566 1473 r scene;
#X obj 566 1493 == 4;
#X obj 532 1536 spigot;
#X floatatom 533 1559 5 0 0 0 - - -;
#X obj 534 1581 s lightOut;
#X obj 1091 840 * 12;
#X obj 1036 977 print lights;
#X obj 1028 864 for ++;
#X obj 1054 906 print for;
#X obj 1028 1021 s lightOut;
#X obj 1028 906 + 1;
#X obj 1029 955 expr ($f1 * 12) + 8;
#X msg 1323 743 12 \, 24 \, 36 \, 48 \, 60 \, 72 \, 84 \, 96;
#X obj 1010 781 list store 12 24 36 48 60 72 84 96;
#X msg 1011 758 get \$1 1;
#X floatatom 1010 690 5 1 8 0 - - -;
#X msg 1328 111 1;
#X msg 1366 111 2;
#X msg 1399 111 3;
#X msg 1432 111 4;
#X msg 1466 111 5;
#X msg 1499 111 6;
#X msg 1531 111 7;
#X msg 1563 111 8;
#X obj 1010 623 tgl 15 0 empty empty empty 17 7 0 10 -262144 -1 -1
0 1;
#X obj 1010 644 metro 800;
#X obj 1010 578 r scene;
#X obj 1010 599 == 1;
#X obj 410 277 s scene;
#X floatatom 411 248 5 0 0 0 - - -;
#X msg 411 190 1;
#X msg 441 190 2;
#X msg 476 190 3;
#X msg 514 189 4;
#X msg 551 190 5;
#X msg 604 189 6;
#X msg 382 190 0;
#X obj 1010 711 - 1;
#X obj 290 310 r scene;
#X obj 290 354 == 2;
#X obj 60 492 s iPad1;
#X obj 1037 294 im.sinesynth;
#X obj 1037 407 im.output;
#X obj 1037 249 sig~;
#X obj 1037 226 r iPad1;
#X obj 1055 370 im.echo 333 50%;
#X obj 1037 273 im.scale C major 4;
#X obj 137 847 metro 10000;
#X obj 137 810 tgl 30 0 empty empty empty 17 7 0 10 -260097 -1 -1 1
1;
#X obj 470 329 % 12;
#X obj 78 131 adc~;
#X obj 98 176 im.volume 20%;
#X obj 98 203 dac~;
#X text 568 713 back to 8;
#X obj 1406 193 r iPad1;
#X obj 1055 349 im.volume 70%;
#X obj 1038 318 im.volume 80%;
#X obj 328 355 == 5;
#X obj 290 377 ||, f 7;
#X obj 470 287 r iPad1;
#X text 1656 290 reset after play;
#X obj 99 154 *~;
#X obj 114 130 tgl 15 0 empty empty empty 17 7 0 10 -262144 -1 -1 0
1;
#N canvas 0 22 828 130 emulations 0;
#X obj 9 43 mb-emulation 1;
#X msg 108 17 255 0 0;
#X obj 107 44 mb-emulation 2;
#X msg 203 16 255 0 0;
#X msg 301 17 255 0 0;
#X obj 202 44 mb-emulation 3;
#X obj 300 44 mb-emulation 4;
#X msg 395 18 255 0 0;
#X msg 493 19 255 0 0;
#X msg 588 18 255 0 0;
#X msg 686 19 255 0 0;
#X obj 394 45 mb-emulation 5;
#X obj 492 46 mb-emulation 6;
#X obj 587 46 mb-emulation 7;
#X obj 685 46 mb-emulation 8;
#X msg 10 17 0 0 0;
#X connect 1 0 2 0;
#X connect 3 0 5 0;
#X connect 4 0 6 0;
#X connect 7 0 11 0;
#X connect 8 0 12 0;
#X connect 9 0 13 0;
#X connect 10 0 14 0;
#X connect 15 0 0 0;
#X restore 1386 1066 pd emulations;
#N canvas 687 764 593 264 white 0;
#X obj 21 71 poly 8 1, f 10;
#X obj 21 97 pack f f f;
#X obj 20 124 mb-unit-white 1;
#X obj 212 127 mb-unit-white 2;
#X obj 20 153 mb-unit-white 3;
#X obj 212 156 mb-unit-white 4;
#X obj 23 179 mb-unit-white 5;
#X obj 216 179 mb-unit-white 6;
#X obj 23 207 mb-unit-white 7;
#X obj 218 206 mb-unit-white 8;
#X obj 21 46 makenote 255 10;
#X floatatom 108 27 5 0 0 0 - - -;
#X obj 20 16 inlet;
#X obj 108 8 inlet noteLength;
#X connect 0 0 1 0;
#X connect 0 1 1 1;
#X connect 0 2 1 2;
#X connect 1 0 2 0;
#X connect 1 0 4 0;
#X connect 1 0 8 0;
#X connect 1 0 6 0;
#X connect 10 0 0 0;
#X connect 10 1 0 1;
#X connect 11 0 10 2;
#X connect 12 0 10 0;
#X connect 13 0 11 0;
#X restore 502 405 pd white;
#X floatatom 547 373 5 0 0 0 - - -;
#N canvas 0 22 759 540 rgb-Values 0;
#X text 263 50 [1 \, 0 \, 0] \, [1 \, 0.25 \, 0] \, [1 \, 0.5 \, 0]
\, [1 \, 0.75 \, 0] \, [1 \, 1 \, 0] \, [0.5 \, 1 \, 0] \, [0 \, 1
\, 0] \, [0 \, 1 \, 0.5] \, [0.1 \, 0.99 \, 1] \, [0.1 \, 0.1 \, 0.99]
\, [0.5 \, 0 \, 1] \, [1 \, 0 \, 0.99];
#X obj 89 107 text define rgbVals;
#X obj 67 177 text insert rgbVals;
#X msg 88 83 clear;
#X obj 18 36 loadbang;
#X obj 76 35 bng 15 250 50 0 empty empty empty 17 7 0 10 -262144 -1
-1;
#X obj 19 59 t b b b b, f 12;
#X msg 66 137 0.5 0 1 \, 0 0.5 1 \, 0 0 1 \, 0 1 1 \, 0 1 0 \, 0.5
1 0 \, 1 1 0 \, 1 0.75 0 \, 1 0.5 0 \, 1 0.25 0 \, 1 0 0;
#X text 313 219 0.5 0 1 \, 0 0.5 1 \, 0 0 1 \, 0 1 1 \, 0 1 0 \, 0.5
1 0 \, 1 1 0 \, 1 0.75 0 \, 1 0.5 0 \, 1 0.25 0 \, 1 0 0;
#X obj 69 294 text get rgbVals;
#X floatatom 69 271 5 0 0 0 - - -;
#X obj 69 320 print values;
#X connect 3 0 1 0;
#X connect 4 0 6 0;
#X connect 5 0 6 0;
#X connect 6 2 7 0;
#X connect 6 3 3 0;
#X connect 7 0 2 0;
#X connect 9 0 11 0;
#X connect 10 0 9 0;
#X restore 1386 1045 pd rgb-Values;
#X text 604 141 orange;
#X msg 604 160 ending;
#X text 1405 168 temporary;
#X text 57 1137 emulations;
#X msg 1125 978 0;
#X msg 1076 602 1;
#X msg 1116 602 2;
#X msg 1155 602 3;
#X msg 1195 603 4;
#X msg 1228 604 5;
#X msg 1261 604 6;
#X msg 1300 603 7;
#X msg 1339 603 8;
#X text 1039 815 8 works well;
#X obj 1010 809 + 9;
#X obj 1331 223 r p1;
#X obj 1433 239 r p2;
#X obj 1532 239 r p3;
#X obj 1627 236 r p4;
#X obj 1332 319 % 12;
#X obj 1434 316 % 12;
#X floatatom 1332 246 5 0 0 0 - - -;
#X floatatom 1433 261 5 0 0 0 - - -;
#X obj 1525 326 % 12;
#X obj 1627 299 % 12;
#X floatatom 1539 267 5 0 0 0 - - -;
#X floatatom 1626 258 5 0 0 0 - - -;
#X obj 360 76 s lightOut;
#X msg 360 52 0;
#X obj 359 -19 key;
#X floatatom 360 7 5 0 0 0 - - -;
#X obj 333 98 s scene;
#X floatatom 1061 625 5 0 0 0 - - -;
#X obj 331 661 spigot;
#X obj 364 642 tgl 15 0 empty empty empty 17 7 0 10 -262144 -1 -1 0
1;
#X obj 331 620 spigot;
#X obj 585 374 tgl 15 0 empty empty empty 17 7 0 10 -262144 -1 -1 0
1;
#N canvas 508 160 772 618 back 0;
#X obj 74 261 list store 12 24 36 48 60 72 84 96;
#X msg 75 238 get \$1 1;
#X floatatom 75 164 5 1 8 0 - - -;
#X obj 76 67 tgl 15 0 empty empty empty 17 7 0 10 -262144 -1 -1 0 1
;
#X obj 76 88 metro 800;
#X obj 76 22 r scene;
#X obj 76 213 - 1;
#X msg 197 88 1;
#X msg 237 91 2;
#X msg 276 93 3;
#X msg 316 96 4;
#X msg 346 100 5;
#X msg 380 100 6;
#X msg 422 100 7;
#X msg 476 100 8;
#X floatatom 125 68 5 0 0 0 - - -;
#X obj 76 43 == 3;
#X obj 158 204 sel;
#X obj 305 420 s lightOut;
#X obj 306 390 + 9;
#X obj 183 -44 adc~;
#X obj 184 -17 fiddle~ 1024 1 20 3;
#X obj 185 15 % 12;
#X obj 184 37 sel 0 1 2 3 4 5 6 7;
#X obj 410 -24 bonk~;
#X obj 411 3 bng 15 250 50 0 empty empty empty 17 7 0 10 -262144 -1
-1;
#X obj 416 128 r p1;
#X floatatom 411 293 5 0 0 0 - - -;
#X floatatom 415 195 5 0 0 0 - - -;
#X obj 409 26 spigot;
#X obj 463 -6 tgl 15 0 empty empty empty 17 7 0 10 -262144 -1 -1 0
1;
#X floatatom 464 292 5 0 0 0 - - -;
#X floatatom 465 196 5 0 0 0 - - -;
#X obj 466 129 r p2;
#X floatatom 511 288 5 0 0 0 - - -;
#X floatatom 512 192 5 0 0 0 - - -;
#X obj 513 125 r p3;
#X floatatom 559 290 5 0 0 0 - - -;
#X floatatom 560 194 5 0 0 0 - - -;
#X obj 411 267 + 24;
#X obj 464 266 + 48;
#X obj 511 262 + 72;
#X obj 559 264 + 96;
#X obj 561 127 r p4;
#X obj 415 164 - 6;
#X obj 467 170 - 6;
#X obj 510 168 - 6;
#X obj 565 167 - 6;
#X floatatom 368 149 5 0 0 0 - - -;
#X msg 607 140 4;
#X msg 641 138 6;
#X obj 415 234 % 12;
#X obj 474 233 % 12;
#X obj 524 235 % 12;
#X obj 569 232 % 12;
#X obj 76 111 cyclone/counter 0 1 8;
#X obj 410 54 cyclone/counter 2 0 8;
#X obj 394 -56 cyclone/svf~ 2000;
#X obj 507 -8 sigmund~;
#X connect 0 0 19 0;
#X connect 1 0 0 0;
#X connect 2 0 6 0;
#X connect 3 0 4 0;
#X connect 4 0 55 0;
#X connect 5 0 16 0;
#X connect 6 0 1 0;
#X connect 7 0 2 0;
#X connect 8 0 2 0;
#X connect 10 0 2 0;
#X connect 11 0 2 0;
#X connect 12 0 2 0;
#X connect 13 0 2 0;
#X connect 14 0 2 0;
#X connect 15 0 4 1;
#X connect 16 0 3 0;
#X connect 19 0 18 0;
#X connect 20 0 21 0;
#X connect 20 0 57 0;
#X connect 22 0 23 0;
#X connect 23 0 7 0;
#X connect 23 1 8 0;
#X connect 23 2 9 0;
#X connect 23 3 10 0;
#X connect 23 4 11 0;
#X connect 23 5 12 0;
#X connect 23 6 13 0;
#X connect 23 7 14 0;
#X connect 24 0 25 0;
#X connect 25 0 29 0;
#X connect 26 0 44 0;
#X connect 27 0 18 0;
#X connect 28 0 51 0;
#X connect 29 0 56 0;
#X connect 30 0 29 1;
#X connect 31 0 18 0;
#X connect 32 0 52 0;
#X connect 33 0 45 0;
#X connect 34 0 18 0;
#X connect 35 0 53 0;
#X connect 36 0 46 0;
#X connect 37 0 18 0;
#X connect 38 0 54 0;
#X connect 39 0 27 0;
#X connect 40 0 31 0;
#X connect 41 0 34 0;
#X connect 42 0 37 0;
#X connect 43 0 47 0;
#X connect 44 0 28 0;
#X connect 45 0 32 0;
#X connect 46 0 35 0;
#X connect 47 0 38 0;
#X connect 49 0 44 1;
#X connect 49 0 47 1;
#X connect 49 0 46 1;
#X connect 49 0 45 1;
#X connect 50 0 44 1;
#X connect 50 0 47 1;
#X connect 50 0 46 1;
#X connect 50 0 45 1;
#X connect 51 0 39 0;
#X connect 52 0 40 0;
#X connect 53 0 41 0;
#X connect 54 0 42 0;
#X connect 55 0 2 0;
#X connect 56 0 2 0;
#X connect 57 1 24 0;
#X restore 830 668 pd back;
#X obj 552 579 r lightsCameBack;
#X obj 360 28 select 167 47;
#X obj 397 53 s lightsCameBack;
#X obj 552 600 tgl 15 0 empty empty empty 17 7 0 10 -262144 -1 -1 0
1;
#X text 357 -39 1 = 33!;
#X text 415 -40 2 = 64@;
#X text 482 -39 3 = 163£;
#X text 546 -42 4 = 36$;
#X text 603 -41 5 = 37%;
#X text 660 -42 6 = 94^;
#X floatatom 640 652 5 0 0 0 - - -;
#X obj 427 120 sel 33 64 163 36 37 94;
#X obj 553 733 poly 8 1, f 15;
#X obj 1333 286 - 6;
#X obj 1431 288 - 6;
#X obj 1530 302 - 6;
#X obj 1626 278 - 6;
#X obj 191 526 netreceive -u -b;
#X msg 190 504 listen 8000;
#X obj 191 485 loadbang;
#X obj 204 556 oscparse;
#X obj 204 577 route list;
#X obj 204 598 route scene;
#X floatatom 203 621 5 0 0 0 - - -;
#X obj 203 641 s scene;
#X obj 470 309 - 6;
#X obj 191 367 r p1;
#X obj 259 262 change;
#X obj 258 243 i;
#X text 292 438 this was connected to env;
#X obj 232 368 r p2;
#X obj 190 410 r p3;
#X obj 223 412 r p4;
#X obj 332 508 + 0;
#X obj 191 387 + 0;
#X obj 232 388 + 0;
#X obj 190 431 + 0;
#X obj 223 431 + 0;
#X obj 137 788 loadbang;
#X obj 331 598 cyclone/speedlim 500;
#X obj 397 1559 cyclone/speedlim 200;
#X obj 533 1451 cyclone/speedlim 500;
#X obj 1010 667 cyclone/counter 0 1 8;
#N canvas 0 23 450 300 testmessages 0;
#X msg 204 768 50 49 49 10;
#X msg 186 708 50 49 10;
#X msg 122 864 114 49 100 10;
#X msg 98 1030 103 \$1 100 10;
#X floatatom 90 918 5 0 0 0 - - -;
#X msg 136 672 48 10;
#X obj 136 587 r scene;
#X obj 136 632 sel 0;
#X obj 41 1079 outlet;
#X msg 214 892 0 \, 10;
#X msg 221 977 223;
#X connect 0 0 8 0;
#X connect 1 0 8 0;
#X connect 2 0 8 0;
#X connect 3 0 8 0;
#X connect 4 0 3 0;
#X connect 5 0 8 0;
#X connect 6 0 7 0;
#X connect 7 0 5 0;
#X connect 9 0 8 0;
#X connect 10 0 8 0;
#X restore 281 913 pd testmessages;
#X text 183 660 Temporary loader for Pi;
#X text 134 131 direct mic monitor;
#X obj 290 333 t f f, f 7;
#N canvas 0 23 977 754 monitor 0;
#X obj 55 -696 adc~;
#X obj 53 -450 fiddle~ 1024 1 20 3;
#X obj 163 -402 unpack f f;
#X obj 53 -506 *~;
#X obj 83 -552 tgl 15 0 empty empty empty 17 7 0 10 -262144 -1 -1 1
1;
#X obj 204 -945 readsf~;
#X msg 205 -981 open ../Audio_test_files/sun.wav \, 1;
#X obj 386 -899 dac~;
#X msg 166 -1053 0;
#X obj 202 -865 env~;
#X floatatom 202 -821 5 0 0 0 - - -;
#X obj 202 -655 clip 0 127;
#X obj 202 -703 i;
#X msg 202 -597 1 \$1;
#X obj 202 -547 noteout 2;
#X obj 202 -763 spigot;
#X obj 280 -805 tgl 15 0 empty empty empty 17 7 0 10 -262144 -1 -1
0 1;
#X obj 278 -895 r scene;
#X obj 278 -851 == 2;
#X obj 83 -596 loadbang;
#X obj 55 -650 lop~ 8000;
#X obj 53 -364 print cooked;
#X floatatom 67 -405 5 0 0 0 - - -;
#X text 110 -500 check this with sigmund~;
#X obj 59 -323 outlet;
#X obj 205 -1002 bng 15 250 50 0 empty empty empty 17 7 0 10 -262144
-1 -1;
#X obj 204 -1046 inlet playtest;
#X obj 204 -1025 sel 1 0;
#X msg 225 -1002 0;
#X connect 0 0 20 0;
#X connect 1 0 21 0;
#X connect 1 0 22 0;
#X connect 1 2 2 0;
#X connect 3 0 1 0;
#X connect 3 0 9 0;
#X connect 4 0 3 1;
#X connect 5 0 1 0;
#X connect 5 0 9 0;
#X connect 5 0 7 0;
#X connect 6 0 5 0;
#X connect 8 0 5 0;
#X connect 9 0 10 0;
#X connect 10 0 15 0;
#X connect 11 0 13 0;
#X connect 12 0 11 0;
#X connect 13 0 14 0;
#X connect 15 0 12 0;
#X connect 16 0 15 1;
#X connect 17 0 18 0;
#X connect 18 0 16 0;
#X connect 19 0 4 0;
#X connect 20 0 3 0;
#X connect 22 0 24 0;
#X connect 25 0 6 0;
#X connect 26 0 27 0;
#X connect 27 0 25 0;
#X connect 27 1 28 0;
#X connect 28 0 5 0;
#X restore 258 222 pd monitor;
#X obj 258 202 tgl 15 0 empty empty empty 17 7 0 10 -262144 -1 -1 0
1;
#X obj 1667 325 r allInputs;
#X obj 1330 143 s allInputs;
#X text 1570 219 received from 4 ipads with ids;
#X text 190 346 iPad inputs;
#X obj 332 799 r singleOctave;
#X obj 656 541 r scene;
#X obj 656 560 sel 0;
#X msg 656 578 0;
#X text 55 308 !!Should this be on?;
#X text 58 -34 Dragon Light Box (Defiant Journey);
#N canvas 0 23 1098 715 experiment-check 0;
#X obj 68 316 line;
#X msg 68 254 255 \, 0 1000;
#X obj 68 614 + 10;
#X obj 68 676 pack f f, f 15;
#X obj 68 725 noteout 10;
#X obj 68 370 t b f;
#X obj 110 564 * 10;
#X obj 110 518 \$1;
#X obj 110 472 loadbang;
#X obj 68 424 \$2;
#X obj 66 211 inlet;
#X text 10 764 0 and 8;
#X obj 639 696 random 255;
#X obj 783 696 random 255;
#X obj 927 696 random 255;
#X obj 669 606 metro 100;
#X obj 537 652 random 8;
#X obj 537 708 + 1;
#X obj 537 758 pack f f f f, f 35;
#X obj 541 808 send emulation;
#X obj 675 554 tgl 15 0 empty empty empty 17 7 0 10 -262144 -1 -1 0
1;
#X text 723 560 randomise all lights;
#X connect 0 0 5 0;
#X connect 1 0 0 0;
#X connect 2 0 3 0;
#X connect 3 0 4 0;
#X connect 5 0 9 0;
#X connect 5 1 3 1;
#X connect 6 0 2 1;
#X connect 7 0 6 0;
#X connect 8 0 7 0;
#X connect 9 0 2 0;
#X connect 10 0 1 0;
#X connect 12 0 18 1;
#X connect 13 0 18 2;
#X connect 14 0 18 3;
#X connect 15 0 13 0;
#X connect 15 0 14 0;
#X connect 15 0 16 0;
#X connect 15 0 12 0;
#X connect 16 0 17 0;
#X connect 17 0 18 0;
#X connect 18 0 19 0;
#X connect 20 0 15 0;
#X restore 1387 1091 pd experiment-check;
#X text 317 118 !!combine?;
#X text 57 -17 Work in progress for October demo unit;
#X text 56 -1 Charles Matthews 2019;
#X obj 99 616 lightbox;
#N canvas 794 23 450 300 displayIn 1;
#X restore -539 511 pd displayIn;
#X obj -617 -72 cnv 15 500 400 empty empty empty 20 12 0 14 -1 -66577
0;
#X obj -604 -56 cnv 15 150 180 empty sun empty 20 12 0 14 -228992 -66577
0;
#X obj -582 -36 bng 100 250 50 0 sunbutton empty Sun 8 130 1 50 -261234
-260097 -1;
#X obj -442 -57 cnv 15 150 180 empty test empty 20 12 0 14 -228992
-66577 0;
#X obj -417 -35 bng 100 250 50 0 standbybutton empty Standby -4 130
1 30 -4032 -260097 -1;
#X obj -280 -57 cnv 15 150 180 empty off empty 20 12 0 14 -262131 -66577
0;
#X obj -254 -36 bng 100 250 50 0 offbutton empty OFF -1 130 1 50 -4160
-4032 -1;
#X obj -604 132 cnv 15 474 180 empty empty empty 20 12 0 14 -191407
-66577 0;
#X obj -418 142 bng 100 250 50 0 testbutton empty Test 0 130 1 50 -258113
-260097 -1;
#X msg 1150 713 12 \, 24 \, 36 \, 48 \, 60 \, 72 \, 84 \, 96;
#X obj 1170 842 r testbutton;
#X msg -568 769 5;
#X msg -568 790 \; sun color \$1;
#X msg -537 768 8;
#X obj -571 585 r sunbutton;
#X msg -571 636 1;
#X obj -568 748 sel 1 0, f 11;
#X msg -466 767 5;
#X msg -435 766 8;
#X msg -469 634 1;
#X obj -466 746 sel 1 0, f 11;
#X msg -438 635 0;
#X msg -539 634 0;
#X obj -571 605 t b b b;
#X obj -469 603 t b b b;
#X msg -349 769 5;
#X msg -318 768 8;
#X msg -352 636 1;
#X obj -349 748 sel 1 0, f 11;
#X msg -321 635 0;
#X obj -352 605 t b b b;
#X obj -352 585 r offbutton;
#X msg -505 635 0;
#X obj -469 583 r standbybutton;
#X msg -466 788 \; standby color \$1;
#X msg -349 790 \; off color \$1;
#X msg -286 637 0;
#X msg -407 635 0;
#X obj -231 586 r testbutton;
#X obj -231 608 s testall;
#X obj -373 883 s scene;
#X msg -325 833 1;
#X msg -449 846 2;
#X msg -271 831 0;
#X msg 1028 837 8;
#X obj 799 1064 * 12;
#X obj 744 1201 print lights;
#X obj 736 1088 for ++;
#X obj 762 1130 print for;
#X obj 736 1245 s lightOut;
#X msg 833 1202 0;
#X obj 736 991 r testbutton;
#X msg 736 1061 8;
#X obj 736 1130 + 1;
#X obj 737 1179 expr ($f1 * 12) + 7;
#X msg 137 867 open 0;
#X obj 564 61 loadbang;
#X connect 0 0 1 0;
#X connect 1 0 2 0;
#X connect 2 0 3 0;
#X connect 2 0 9 0;
#X connect 3 0 226 0;
#X connect 4 0 83 0;
#X connect 5 0 164 0;
#X connect 6 0 7 0;
#X connect 7 0 163 0;
#X connect 7 0 5 0;
#X connect 8 0 6 0;
#X connect 10 0 36 0;
#X connect 12 0 13 0;
#X connect 13 0 11 0;
#X connect 14 0 18 0;
#X connect 15 0 330 0;
#X connect 16 0 17 0;
#X connect 17 0 15 0;
#X connect 17 0 28 0;
#X connect 18 1 35 0;
#X connect 27 0 33 0;
#X connect 27 0 19 0;
#X connect 27 0 21 0;
#X connect 27 0 20 0;
#X connect 27 0 26 0;
#X connect 27 0 25 0;
#X connect 27 0 24 0;
#X connect 27 0 23 0;
#X connect 27 0 22 0;
#X connect 28 0 170 0;
#X connect 29 0 11 0;
#X connect 29 0 12 0;
#X connect 29 0 13 0;
#X connect 33 0 32 0;
#X connect 34 0 33 1;
#X connect 35 1 324 0;
#X connect 36 0 0 0;
#X connect 39 0 40 0;
#X connect 40 0 45 0;
#X connect 41 0 39 0;
#X connect 42 0 41 0;
#X connect 43 0 40 1;
#X connect 44 0 303 0;
#X connect 45 0 38 0;
#X connect 46 0 48 0;
#X connect 48 0 47 0;
#X connect 49 0 50 0;
#X connect 50 0 51 0;
#X connect 51 0 27 0;
#X connect 52 0 217 0;
#X connect 53 0 218 0;
#X connect 54 0 219 0;
#X connect 55 0 220 0;
#X connect 56 0 60 0;
#X connect 57 0 62 0;
#X connect 58 0 57 0;
#X connect 59 0 75 0;
#X connect 60 0 61 0;
#X connect 61 0 57 0;
#X connect 62 0 63 0;
#X connect 62 0 65 0;
#X connect 62 0 67 0;
#X connect 62 0 68 0;
#X connect 62 0 69 0;
#X connect 62 0 72 0;
#X connect 62 0 71 0;
#X connect 62 0 70 0;
#X connect 64 0 56 0;
#X connect 66 0 64 0;
#X connect 73 0 74 0;
#X connect 74 0 63 1;
#X connect 74 0 65 1;
#X connect 74 0 68 1;
#X connect 74 0 72 1;
#X connect 74 0 71 1;
#X connect 74 0 70 1;
#X connect 74 0 69 1;
#X connect 74 0 67 1;
#X connect 75 0 73 0;
#X connect 75 1 58 0;
#X connect 76 0 81 0;
#X connect 77 0 76 1;
#X connect 77 0 289 0;
#X connect 78 0 80 0;
#X connect 79 0 84 0;
#X connect 80 0 77 0;
#X connect 81 0 250 0;
#X connect 82 0 76 0;
#X connect 89 0 93 0;
#X connect 90 0 95 0;
#X connect 91 0 90 0;
#X connect 92 0 99 0;
#X connect 93 0 94 0;
#X connect 94 0 90 0;
#X connect 95 0 102 0;
#X connect 95 0 103 0;
#X connect 95 0 104 0;
#X connect 95 0 105 0;
#X connect 95 0 106 0;
#X connect 95 0 107 0;
#X connect 95 0 108 0;
#X connect 95 0 109 0;
#X connect 96 0 89 0;
#X connect 97 0 98 0;
#X connect 98 0 102 1;
#X connect 98 0 103 1;
#X connect 98 0 104 1;
#X connect 98 0 105 1;
#X connect 98 0 106 1;
#X connect 98 0 107 1;
#X connect 98 0 108 1;
#X connect 98 0 109 1;
#X connect 99 0 97 0;
#X connect 99 1 91 0;
#X connect 100 0 101 0;
#X connect 101 0 92 0;
#X connect 110 0 96 0;
#X connect 111 0 113 0;
#X connect 112 0 115 0;
#X connect 113 0 114 0;
#X connect 114 0 112 0;
#X connect 116 0 111 0;
#X connect 117 0 116 0;
#X connect 127 0 119 0;
#X connect 127 0 126 0;
#X connect 127 0 125 0;
#X connect 127 0 124 0;
#X connect 127 0 123 0;
#X connect 127 0 122 0;
#X connect 127 0 121 0;
#X connect 127 0 120 0;
#X connect 128 0 119 1;
#X connect 128 0 126 1;
#X connect 128 0 125 1;
#X connect 128 0 124 1;
#X connect 128 0 123 1;
#X connect 128 0 122 1;
#X connect 128 0 121 1;
#X connect 128 0 120 1;
#X connect 129 0 119 2;
#X connect 129 0 126 2;
#X connect 129 0 125 2;
#X connect 129 0 124 2;
#X connect 129 0 123 2;
#X connect 129 0 122 2;
#X connect 129 0 121 2;
#X connect 129 0 120 2;
#X connect 130 0 119 3;
#X connect 130 0 126 3;
#X connect 130 0 125 3;
#X connect 130 0 124 3;
#X connect 130 0 123 3;
#X connect 130 0 122 3;
#X connect 130 0 121 3;
#X connect 130 0 120 3;
#X connect 131 0 110 0;
#X connect 131 0 117 0;
#X connect 132 0 66 0;
#X connect 134 0 133 1;
#X connect 135 0 136 0;
#X connect 136 0 134 0;
#X connect 137 0 141 0;
#X connect 138 0 143 0;
#X connect 139 0 138 0;
#X connect 140 0 156 0;
#X connect 141 0 142 0;
#X connect 142 0 138 0;
#X connect 143 0 146 0;
#X connect 143 0 144 0;
#X connect 143 0 148 0;
#X connect 143 0 149 0;
#X connect 143 0 150 0;
#X connect 143 0 153 0;
#X connect 143 0 152 0;
#X connect 143 0 151 0;
#X connect 145 0 137 0;
#X connect 147 0 145 0;
#X connect 154 0 155 0;
#X connect 155 0 146 1;
#X connect 155 0 149 1;
#X connect 155 0 153 1;
#X connect 155 0 152 1;
#X connect 155 0 151 1;
#X connect 155 0 150 1;
#X connect 155 0 148 1;
#X connect 155 0 144 1;
#X connect 156 0 154 0;
#X connect 156 1 139 0;
#X connect 157 0 159 0;
#X connect 158 0 147 0;
#X connect 159 0 140 0;
#X connect 160 0 14 0;
#X connect 161 0 160 1;
#X connect 162 0 4 0;
#X connect 165 0 8 0;
#X connect 167 0 166 0;
#X connect 167 0 6 0;
#X connect 168 0 167 0;
#X connect 169 0 168 0;
#X connect 170 0 303 0;
#X connect 170 1 303 1;
#X connect 172 0 28 0;
#X connect 173 0 174 0;
#X connect 174 0 177 0;
#X connect 175 0 174 1;
#X connect 176 0 175 0;
#X connect 177 0 178 0;
#X connect 178 0 181 0;
#X connect 179 0 180 0;
#X connect 180 0 332 0;
#X connect 181 0 179 0;
#X connect 182 0 188 0;
#X connect 183 0 182 0;
#X connect 185 0 188 1;
#X connect 186 0 187 0;
#X connect 187 0 185 0;
#X connect 188 0 189 0;
#X connect 189 0 190 0;
#X connect 193 0 194 0;
#X connect 193 0 196 0;
#X connect 196 0 197 0;
#X connect 197 0 192 0;
#X connect 197 0 195 0;
#X connect 199 0 267 0;
#X connect 200 0 199 0;
#X connect 201 0 223 0;
#X connect 202 0 341 0;
#X connect 203 0 341 0;
#X connect 204 0 341 0;
#X connect 205 0 341 0;
#X connect 206 0 341 0;
#X connect 207 0 341 0;
#X connect 208 0 341 0;
#X connect 209 0 341 0;
#X connect 210 0 211 0;
#X connect 211 0 333 0;
#X connect 212 0 213 0;
#X connect 213 0 210 0;
#X connect 215 0 214 0;
#X connect 216 0 215 0;
#X connect 217 0 215 0;
#X connect 218 0 215 0;
#X connect 219 0 215 0;
#X connect 220 0 215 0;
#X connect 221 0 215 0;
#X connect 222 0 215 0;
#X connect 223 0 200 0;
#X connect 224 0 337 0;
#X connect 225 0 244 0;
#X connect 227 0 242 0;
#X connect 229 0 232 0;
#X connect 230 0 229 0;
#X connect 231 0 228 0;
#X connect 232 0 227 0;
#X connect 233 0 411 0;
#X connect 234 0 233 0;
#X connect 235 0 81 0;
#X connect 236 1 247 0;
#X connect 237 0 238 0;
#X connect 237 0 238 1;
#X connect 240 0 133 0;
#X connect 241 0 231 0;
#X connect 242 0 228 0;
#X connect 242 0 241 0;
#X connect 243 0 244 1;
#X connect 244 0 161 0;
#X connect 245 0 316 0;
#X connect 247 0 237 0;
#X connect 248 0 247 1;
#X connect 251 0 250 1;
#X connect 254 0 221 0;
#X connect 257 0 195 0;
#X connect 258 0 201 0;
#X connect 259 0 201 0;
#X connect 260 0 201 0;
#X connect 261 0 201 0;
#X connect 262 0 201 0;
#X connect 263 0 201 0;
#X connect 264 0 201 0;
#X connect 265 0 201 0;
#X connect 267 0 195 0;
#X connect 268 0 274 0;
#X connect 269 0 275 0;
#X connect 270 0 278 0;
#X connect 271 0 279 0;
#X connect 272 0 127 0;
#X connect 273 0 128 0;
#X connect 274 0 304 0;
#X connect 275 0 305 0;
#X connect 276 0 129 0;
#X connect 277 0 130 0;
#X connect 278 0 306 0;
#X connect 279 0 307 0;
#X connect 281 0 280 0;
#X connect 281 0 284 0;
#X connect 282 0 283 0;
#X connect 283 0 292 0;
#X connect 283 0 302 0;
#X connect 285 0 211 1;
#X connect 286 0 4 0;
#X connect 287 0 286 1;
#X connect 288 0 81 0;
#X connect 289 0 288 1;
#X connect 291 0 294 0;
#X connect 292 0 281 0;
#X connect 292 1 293 0;
#X connect 294 0 172 0;
#X connect 301 0 170 2;
#X connect 302 0 216 0;
#X connect 302 1 52 0;
#X connect 302 2 53 0;
#X connect 302 3 54 0;
#X connect 302 4 55 0;
#X connect 302 5 254 0;
#X connect 303 0 27 0;
#X connect 303 1 27 1;
#X connect 303 2 27 2;
#X connect 304 0 272 0;
#X connect 305 0 273 0;
#X connect 306 0 276 0;
#X connect 307 0 277 0;
#X connect 308 0 311 0;
#X connect 309 0 308 0;
#X connect 310 0 309 0;
#X connect 311 0 312 0;
#X connect 312 0 313 0;
#X connect 313 0 314 0;
#X connect 314 0 315 0;
#X connect 316 0 235 0;
#X connect 317 0 325 0;
#X connect 318 0 160 0;
#X connect 319 0 318 0;
#X connect 321 0 326 0;
#X connect 322 0 327 0;
#X connect 323 0 328 0;
#X connect 324 0 16 0;
#X connect 325 0 160 0;
#X connect 326 0 160 0;
#X connect 327 0 160 0;
#X connect 328 0 160 0;
#X connect 329 0 234 0;
#X connect 330 0 286 0;
#X connect 330 0 288 0;
#X connect 331 0 171 0;
#X connect 332 0 183 0;
#X connect 333 0 201 0;
#X connect 334 0 5 0;
#X connect 337 0 225 0;
#X connect 337 1 243 0;
#X connect 338 0 319 0;
#X connect 339 0 338 0;
#X connect 340 0 127 0;
#X connect 340 0 128 0;
#X connect 340 0 130 0;
#X connect 340 0 129 0;
#X connect 344 0 168 0;
#X connect 345 0 346 0;
#X connect 346 0 347 0;
#X connect 347 0 294 0;
#X connect 366 0 400 0;
#X connect 367 0 368 0;
#X connect 369 0 368 0;
#X connect 370 0 379 0;
#X connect 370 0 398 0;
#X connect 371 0 372 0;
#X connect 372 0 367 0;
#X connect 372 1 369 0;
#X connect 373 0 390 0;
#X connect 374 0 390 0;
#X connect 375 0 376 0;
#X connect 376 0 373 0;
#X connect 376 1 374 0;
#X connect 377 0 372 0;
#X connect 378 0 376 0;
#X connect 379 0 371 0;
#X connect 379 1 378 0;
#X connect 379 2 388 0;
#X connect 380 0 375 0;
#X connect 380 1 377 0;
#X connect 380 2 393 0;
#X connect 381 0 391 0;
#X connect 382 0 391 0;
#X connect 383 0 384 0;
#X connect 384 0 381 0;
#X connect 384 1 382 0;
#X connect 385 0 372 0;
#X connect 386 0 383 0;
#X connect 386 1 385 0;
#X connect 386 2 392 0;
#X connect 387 0 386 0;
#X connect 387 0 399 0;
#X connect 388 0 384 0;
#X connect 389 0 380 0;
#X connect 389 0 397 0;
#X connect 392 0 376 0;
#X connect 393 0 384 0;
#X connect 394 0 395 0;
#X connect 397 0 396 0;
#X connect 398 0 396 0;
#X connect 399 0 396 0;
#X connect 400 0 193 0;
#X connect 403 0 404 0;
#X connect 403 0 409 0;
#X connect 406 0 405 0;
#X connect 407 0 408 0;
#X connect 408 0 403 0;
#X connect 409 0 410 0;
#X connect 410 0 402 0;
#X connect 410 0 405 0;
#X connect 411 0 5 0;
#X connect 412 0 52 0;
