#N canvas 498 124 782 654 10;
#X obj 62 92 inlet;
#X obj 448 -2 inlet;
#X obj 65 379 s toSerial;
#X text 492 -2 Set base index;
#X obj 65 300 pack f f;
#X obj 388 -2 loadbang;
#X obj 388 74 \$1;
#X obj 315 298 pack f f;
#X msg 65 328 \$2 \$1;
#X obj 126 301 pack f f;
#X msg 126 329 \$2 \$1;
#X obj 188 300 pack f f;
#X msg 188 328 \$2 \$1;
#X obj 249 299 pack f f;
#X msg 249 327 \$2 \$1;
#X obj 62 129 route r g b w o, f 52;
#X msg 315 328 \$2 \$1;
#X obj 390 202 expr $f1 + $f2 \; $f1 + $f3 \; $f1 + $f4 \; $f1 + $f5
\; $f1 + $f6, f 26;
#X obj 431 145 unpack f f f f f;
#X text 511 49 could probably just be an offset rather than this list
;
#X text 8 -4 This could be generic \, with the messages generated according
to an argument / list. Only difference being re the Lixada lights \,
which require a separate brightness control.;
#X obj 105 91 r dmx_all;
#X text 410 111 Count from 1 \, not 0;
#X obj 555 116 \$2;
#X obj 389 153 +;
#X obj 388 42 t b b b;
#X msg 431 69 1 2 3 4 0;
#X connect 0 0 15 0;
#X connect 1 0 6 0;
#X connect 4 0 8 0;
#X connect 5 0 25 0;
#X connect 6 0 24 0;
#X connect 7 0 16 0;
#X connect 8 0 2 0;
#X connect 9 0 10 0;
#X connect 10 0 2 0;
#X connect 11 0 12 0;
#X connect 12 0 2 0;
#X connect 13 0 14 0;
#X connect 14 0 2 0;
#X connect 15 0 4 0;
#X connect 15 1 9 0;
#X connect 15 2 11 0;
#X connect 15 3 13 0;
#X connect 15 4 7 0;
#X connect 16 0 2 0;
#X connect 17 0 4 1;
#X connect 17 1 9 1;
#X connect 17 2 11 1;
#X connect 17 3 13 1;
#X connect 17 4 7 1;
#X connect 18 0 17 1;
#X connect 18 1 17 2;
#X connect 18 2 17 3;
#X connect 18 3 17 4;
#X connect 18 4 17 5;
#X connect 21 0 15 0;
#X connect 23 0 24 1;
#X connect 24 0 17 0;
#X connect 25 0 6 0;
#X connect 25 1 26 0;
#X connect 25 2 23 0;
#X connect 26 0 18 0;
