#N canvas 587 105 640 522 10;
#X obj 161 169 r toSerial;
#X msg 145 49 r 100;
#X msg 76 86 g \$1;
#X floatatom 76 49 5 0 0 0 - - -;
#X msg 196 49 o 255;
#X msg 81 189 o \$1;
#X floatatom 81 152 5 0 0 0 - - -;
#X floatatom 26 49 5 0 0 0 - - -;
#X msg 26 86 r \$1;
#X floatatom 35 157 5 0 0 0 - - -;
#X msg 35 188 r \$1;
#X obj 227 255 s toSerial;
#X msg 227 217 77 255;
#X obj 328 255 s toSerial;
#X msg 328 217 2 255;
#X msg 372 217 1 255;
#X obj 34 217 dmx_unit 1 0;
#X obj 27 129 dmx_unit 70 3;
#X msg 283 216 73 0;
#X msg 342 25 r 0 \, g 0 \, b 0 \, w 0;
#X obj 362 49 s dmx_all;
#X floatatom 113 49 5 0 0 0 - - -;
#X msg 113 86 w \$1;
#X msg 242 328 o \$1;
#X floatatom 242 291 5 0 0 0 - - -;
#X floatatom 35 263 5 0 0 0 - - -;
#X msg 35 294 r \$1;
#X floatatom 77 264 5 0 0 0 - - -;
#X floatatom 151 267 5 0 0 0 - - -;
#X msg 151 298 w \$1;
#X floatatom 112 261 5 0 0 0 - - -;
#X msg 77 295 g \$1;
#X msg 112 292 b \$1;
#X text 211 394 26 \, 47 \, 21;
#X obj 34 396 dmx_unit 21 -1;
#X connect 1 0 17 0;
#X connect 2 0 17 0;
#X connect 3 0 2 0;
#X connect 4 0 17 0;
#X connect 5 0 16 0;
#X connect 6 0 5 0;
#X connect 7 0 8 0;
#X connect 8 0 17 0;
#X connect 9 0 10 0;
#X connect 10 0 16 0;
#X connect 12 0 11 0;
#X connect 14 0 13 0;
#X connect 15 0 13 0;
#X connect 18 0 11 0;
#X connect 19 0 20 0;
#X connect 21 0 22 0;
#X connect 22 0 17 0;
#X connect 23 0 34 0;
#X connect 24 0 23 0;
#X connect 25 0 26 0;
#X connect 26 0 34 0;
#X connect 27 0 31 0;
#X connect 28 0 29 0;
#X connect 29 0 34 0;
#X connect 30 0 32 0;
#X connect 31 0 34 0;
#X connect 32 0 34 0;
