#N canvas 378 182 732 596 10;
#X obj 72 139 tgl 15 0 empty empty empty 17 7 0 10 -262144 -1 -1 0
1;
#X obj 126 137 tgl 15 0 empty empty empty 17 7 0 10 -262144 -1 -1 0
1;
#X obj 175 138 tgl 15 0 empty empty empty 17 7 0 10 -262144 -1 -1 0
1;
#X obj 228 139 tgl 15 0 empty empty empty 17 7 0 10 -262144 -1 -1 0
1;
#X obj 72 188 expr $f1 + $f2 + $f3 + $f4;
#X obj 72 472 noteout 5;
#X floatatom 137 260 5 0 0 0 - - -;
#X obj 72 341 line 0 200;
#X msg 68 315 \$1 500;
#X text 265 138 check if all inputs match the note number provided
as the argument;
#X obj 73 107 == \$1;
#X obj 127 105 == \$1;
#X obj 177 106 == \$1;
#X obj 231 104 == \$1;
#X obj 72 56 inlet;
#X obj 129 57 inlet;
#X obj 178 59 inlet;
#X obj 234 59 inlet;
#X obj 77 380 t b f;
#X obj 74 414 \$1;
#X obj 103 413 i;
#X obj 75 282 clip 0 127;
#X obj 72 219 * 50;
#X obj 72 166 cyclone/bondo 4, f 27;
#X connect 0 0 23 0;
#X connect 1 0 23 1;
#X connect 2 0 23 2;
#X connect 3 0 23 3;
#X connect 4 0 22 0;
#X connect 7 0 18 0;
#X connect 8 0 7 0;
#X connect 10 0 0 0;
#X connect 11 0 1 0;
#X connect 12 0 2 0;
#X connect 13 0 3 0;
#X connect 14 0 10 0;
#X connect 15 0 11 0;
#X connect 16 0 12 0;
#X connect 17 0 13 0;
#X connect 18 0 19 0;
#X connect 18 1 20 0;
#X connect 19 0 5 0;
#X connect 20 0 5 1;
#X connect 21 0 8 0;
#X connect 22 0 6 0;
#X connect 22 0 21 0;
#X connect 23 0 4 0;
#X connect 23 1 4 1;
#X connect 23 2 4 2;
#X connect 23 3 4 3;
