#N canvas 76 166 1151 778 10;
#X obj 134 119 loadbang;
#X floatatom 25 94 5 0 0 0 - - -;
#X obj 24 285 netsend -u -b;
#X obj 23 115 oscformat test;
#X obj 21 160 list trim;
#X obj 21 139 list prepend send;
#X obj 24 71 r noteSend;
#X msg 149 161 disconnect;
#X obj 104 91 oscformat page;
#X obj 103 63 tgl 15 0 empty empty empty 17 7 0 10 -262144 -1 -1 0
1;
#X msg 129 61 1;
#X msg 162 63 0;
#X obj 483 158 netreceive -u -b;
#X msg 483 134 listen 54321;
#X obj 539 183 print 54321;
#X msg 191 36 3;
#X msg 151 17 2;
#X obj 479 207 route list;
#X obj 481 182 oscparse;
#X obj 128 720 dac~;
#X obj 186 268 s bugPhase;
#X obj 186 241 bng 15 250 50 0 empty empty empty 17 7 0 10 -262144
-1 -1;
#X msg 135 140 connect 224.0.0.1 54321;
#X obj 236 -7 r bugPhase;
#X msg 238 18 1;
#X obj 238 39 oscformat bugPhase;
#X obj 222 353 iPad_synth 1;
#X obj 427 368 iPad_synth 2;
#X obj 480 241 route pad1 pad2 pad3 pad4, f 76;
#X obj 844 365 iPad_synth 4;
#X obj 649 434 dac~;
#X obj 633 283 iPad_synth 3;
#X obj 420 439 *~ 0.6;
#X obj 230 434 *~ 0.2;
#X obj 472 439 *~ 0.3;
#X obj 846 438 *~ 0.2;
#X obj 922 289 print received;
#X obj 952 379 sig~;
#X obj 879 315 route bedbug;
#X obj 957 405 im.slowsine;
#X obj 976 496 im.volume 50%;
#X obj 209 104 oscformat back;
#X obj 218 71 tgl 15 0 empty empty empty 17 7 0 10 -4032 -1 -1 1 1
;
#X obj 725 373 sig~;
#X obj 659 314 route bedbug;
#X obj 720 496 im.volume 50%;
#X obj 538 371 sig~;
#X obj 471 346 route bedbug;
#X obj 543 397 im.slowsine;
#X obj 555 506 im.volume 50%;
#X obj 294 445 sig~;
#X obj 245 385 route bedbug;
#X obj 277 469 im.slowsine;
#X obj 952 350 - 12;
#X obj 958 554 *~ 1;
#X obj 247 678 *~ 1;
#X obj 946 433 svf~ 1000;
#X obj 301 496 svf~ 1000;
#X obj 405 323 s p1;
#X obj 577 319 s p2;
#X obj 751 307 s p3;
#X obj 870 286 s p4;
#X obj 955 473 im.volume 50%;
#X obj 480 286 bng 15 250 50 0 empty empty empty 17 7 0 10 -262144
-1 -1;
#X obj 569 294 bng 15 250 50 0 empty empty empty 17 7 0 10 -262144
-1 -1;
#X obj 753 280 bng 15 250 50 0 empty empty empty 17 7 0 10 -262144
-1 -1;
#X obj 842 288 bng 15 250 50 0 empty empty empty 17 7 0 10 -262144
-1 -1;
#X obj 544 421 im.volume 70%;
#X obj 739 458 im.volume 70%;
#X obj 378 475 im.sinesynth;
#X obj 639 472 im.sinesynth;
#X obj 809 474 im.sinesynth;
#X obj 1049 415 im.sinesynth;
#X obj 321 552 im.volume 0.7;
#X obj 321 573 im.echo 667 50%;
#X obj 543 561 im.echo 999 50%;
#X obj 720 517 im.echo 777 50%;
#X obj 976 517 im.echo 744 80%;
#X obj 310 221 makenote 64 1000;
#X obj 304 244 noteout;
#X obj 670 646 freeverb~;
#X msg 432 584 roomsize 1;
#X obj 435 555 loadbang;
#X obj 215 728 dac~;
#X obj 537 613 *~ 0.5;
#X obj 662 589 *~ 0.5;
#X obj 730 399 im.slowsaw;
#X floatatom 759 347 5 0 0 0 - - -;
#X obj 388 25 r scene;
#X obj 385 53 sel 4;
#X obj 451 27 r scene;
#X obj 448 55 sel 3;
#X obj 448 82 t b b;
#X msg 445 102 1;
#X obj 486 107 loadbang;
#X obj 299 417 * 1;
#X obj 252 534 im.volume 70%;
#X obj 763 427 lop~ 3000;
#X floatatom 790 145 5 0 0 0 - - -;
#X floatatom 688 211 5 0 0 0 - - -;
#X floatatom 429 231 5 0 0 0 - - -;
#X obj 187 435 *~ 0.9;
#X obj 634 391 *~ 0.9;
#X obj 677 389 *~ 0.9;
#X obj 888 437 *~ 0.9;
#X obj 676 700 *~ 0.9;
#X obj 721 701 *~ 0.9;
#X obj 185 683 *~ 0.7;
#X obj 236 702 *~ 0.7;
#X connect 0 0 22 0;
#X connect 1 0 3 0;
#X connect 3 0 5 0;
#X connect 4 0 2 0;
#X connect 5 0 4 0;
#X connect 6 0 1 0;
#X connect 7 0 2 0;
#X connect 8 0 5 0;
#X connect 9 0 8 0;
#X connect 10 0 8 0;
#X connect 11 0 8 0;
#X connect 12 0 18 0;
#X connect 12 0 14 0;
#X connect 13 0 12 0;
#X connect 15 0 8 0;
#X connect 16 0 8 0;
#X connect 17 0 28 0;
#X connect 18 0 17 0;
#X connect 21 0 20 0;
#X connect 22 0 2 0;
#X connect 23 0 24 0;
#X connect 24 0 25 0;
#X connect 25 0 5 0;
#X connect 26 0 33 0;
#X connect 26 0 80 0;
#X connect 26 0 101 0;
#X connect 27 0 32 0;
#X connect 27 0 34 0;
#X connect 27 0 49 0;
#X connect 28 0 26 0;
#X connect 28 0 51 0;
#X connect 28 0 58 0;
#X connect 28 0 63 0;
#X connect 28 1 47 0;
#X connect 28 1 59 0;
#X connect 28 1 64 0;
#X connect 28 1 27 0;
#X connect 28 2 44 0;
#X connect 28 2 60 0;
#X connect 28 2 65 0;
#X connect 28 2 31 0;
#X connect 28 3 36 0;
#X connect 28 3 38 0;
#X connect 28 3 61 0;
#X connect 28 3 66 0;
#X connect 28 3 29 0;
#X connect 29 0 35 0;
#X connect 29 0 104 0;
#X connect 31 0 102 0;
#X connect 31 0 103 0;
#X connect 32 0 107 0;
#X connect 33 0 19 1;
#X connect 33 0 108 0;
#X connect 34 0 108 0;
#X connect 35 0 107 0;
#X connect 37 0 39 0;
#X connect 37 0 72 0;
#X connect 38 1 53 0;
#X connect 39 0 56 0;
#X connect 40 0 77 0;
#X connect 41 0 5 0;
#X connect 42 0 41 0;
#X connect 43 0 71 0;
#X connect 43 0 86 0;
#X connect 44 1 43 0;
#X connect 45 0 76 0;
#X connect 46 0 48 0;
#X connect 46 0 70 0;
#X connect 47 1 46 0;
#X connect 48 0 49 0;
#X connect 48 0 67 0;
#X connect 48 0 80 0;
#X connect 49 0 75 0;
#X connect 50 0 52 0;
#X connect 50 0 69 0;
#X connect 51 1 95 0;
#X connect 52 0 57 0;
#X connect 53 0 37 0;
#X connect 54 0 35 0;
#X connect 54 0 104 0;
#X connect 55 0 33 0;
#X connect 55 0 80 0;
#X connect 55 0 101 0;
#X connect 56 1 40 0;
#X connect 56 1 62 0;
#X connect 57 1 73 0;
#X connect 57 1 96 0;
#X connect 62 0 54 0;
#X connect 67 0 84 0;
#X connect 68 0 85 0;
#X connect 69 0 57 0;
#X connect 70 0 49 0;
#X connect 71 0 85 0;
#X connect 72 0 62 0;
#X connect 72 0 80 0;
#X connect 73 0 74 0;
#X connect 74 0 55 0;
#X connect 75 0 84 0;
#X connect 76 0 85 0;
#X connect 77 0 54 0;
#X connect 80 0 105 0;
#X connect 80 1 106 0;
#X connect 81 0 80 0;
#X connect 82 0 81 0;
#X connect 84 0 107 0;
#X connect 84 0 108 0;
#X connect 85 0 107 0;
#X connect 85 0 108 0;
#X connect 86 0 45 0;
#X connect 86 0 80 0;
#X connect 86 0 97 0;
#X connect 87 0 43 0;
#X connect 88 0 89 0;
#X connect 89 0 10 0;
#X connect 90 0 91 0;
#X connect 91 0 92 0;
#X connect 92 0 93 0;
#X connect 92 1 11 0;
#X connect 93 0 42 0;
#X connect 94 0 13 0;
#X connect 95 0 50 0;
#X connect 96 0 55 0;
#X connect 97 0 68 0;
#X connect 98 0 60 0;
#X connect 99 0 59 0;
#X connect 100 0 58 0;
#X connect 101 0 19 0;
#X connect 101 0 107 0;
#X connect 102 0 30 0;
#X connect 103 0 30 1;
#X connect 104 0 108 0;
#X connect 105 0 107 0;
#X connect 106 0 108 0;
#X connect 107 0 83 0;
#X connect 108 0 83 1;
