#N canvas 392 146 954 385 10;
#X obj 548 42 im.mobile;
#X obj 178 -40 unpack f f f;
#X floatatom 213 15 5 0 0 0 - - -;
#X obj 211 108 phasor~;
#X obj 211 129 *~ 44100 /;
#X obj 280 74 soundfiler;
#N canvas 0 22 450 278 (subpatch) 0;
#X array localbug 735510 float 2;
#X coords 0 1 735510 -1 200 140 1 0 0;
#X restore 445 -121 graph;
#X obj 213 60 line~;
#X obj 263 215 im.volume 0.2;
#X floatatom 156 63 5 0 0 0 - - -;
#X obj 142 110 line~;
#X obj 150 14 * 10;
#X obj 150 35 + 100;
#X obj 213 81 *~ 1;
#X obj 131 -6 > 0;
#X obj 124 224 im.volume;
#X obj 173 196 line~;
#X msg 158 155 \$1 10;
#X obj 255 249 im.echo 500 30%;
#X obj 333 190 sig~ 0.2;
#X obj 215 -9 expr (1 - $f1) / 2;
#X obj 54 244 bob~;
#X obj 89 187 +~ 40;
#X obj 89 166 *~ 700;
#X obj 126 191 sig~ 3;
#X obj 278 11 loadbang;
#X obj 306 445 s toGUI;
#X msg 336 424 list /myLCD paintrect 0 0 1 1 1 0 0 1;
#X obj 306 372 pack f f;
#X msg 306 404 list /bedbugBack paintrect 0 0 1 1 \$1 \$2 0 1;
#X obj 399 222 sel 0;
#X obj 368 312 t b f;
#X msg 354 256 \$1 10;
#X msg 269 277 \$1 10;
#X obj 269 298 line 0 10;
#X obj 344 287 line 0 10;
#X msg 400 252 0 1000;
#X obj 445 212 loadbang;
#X msg 208 37 \$1 100;
#X obj 216 149 tabread4~ localbug;
#X msg 280 42 read -resize bedbug.wav localbug;
#X obj 174 -79 route bedbug;
#X floatatom 87 -65 5 0 0 0 - - -;
#X obj 171 -108 inlet;
#X obj 43 -13 t b;
#X msg 23 61 0;
#X obj 24 38 delay 10000;
#X msg 16 96 1 100 \, 0 10000 100;
#X obj 16 117 vline~;
#X obj 38 312 *~;
#X obj 24 282 svf~ 1000;
#X obj 61 456 outlet~;
#X obj 310 -76 r myID;
#X obj 296 -53 f;
#X obj 296 -32 / 4;
#X obj 290 -119 r bugPhase;
#X obj 289 -99 t b;
#X obj 533 123 \$1;
#X obj 533 144 s myID;
#X obj 534 96 loadbang;
#X obj 121 303 osc~ 1;
#X obj 127 280 line~;
#X msg 128 256 \$1 100;
#X obj 46 338 *~;
#X obj 188 96 +;
#X obj 216 170 im.volume 50%;
#X obj 65 389 *~ 2;
#X obj 109 392 freeverb~;
#X connect 1 0 14 0;
#X connect 1 0 42 0;
#X connect 1 1 11 0;
#X connect 1 1 33 0;
#X connect 1 1 44 0;
#X connect 1 1 64 0;
#X connect 1 2 20 0;
#X connect 1 2 32 0;
#X connect 1 2 64 1;
#X connect 2 0 38 0;
#X connect 3 0 4 0;
#X connect 4 0 39 0;
#X connect 5 0 4 1;
#X connect 7 0 13 0;
#X connect 8 0 18 0;
#X connect 9 0 10 0;
#X connect 10 0 18 3;
#X connect 11 0 12 0;
#X connect 11 0 23 0;
#X connect 12 0 9 0;
#X connect 13 0 3 0;
#X connect 14 0 17 0;
#X connect 14 0 30 0;
#X connect 15 0 21 0;
#X connect 16 0 15 1;
#X connect 17 0 16 0;
#X connect 18 0 51 0;
#X connect 19 0 8 1;
#X connect 20 0 2 0;
#X connect 21 0 50 0;
#X connect 22 0 21 1;
#X connect 23 0 22 0;
#X connect 24 0 21 2;
#X connect 25 0 40 0;
#X connect 27 0 26 0;
#X connect 28 0 29 0;
#X connect 29 0 26 0;
#X connect 30 0 36 0;
#X connect 31 0 28 0;
#X connect 31 1 28 1;
#X connect 32 0 35 0;
#X connect 33 0 34 0;
#X connect 34 0 28 0;
#X connect 35 0 31 0;
#X connect 36 0 34 0;
#X connect 36 0 35 0;
#X connect 37 0 36 0;
#X connect 38 0 7 0;
#X connect 39 0 65 0;
#X connect 40 0 5 0;
#X connect 41 0 1 0;
#X connect 43 0 41 0;
#X connect 44 0 46 0;
#X connect 44 0 47 0;
#X connect 45 0 14 0;
#X connect 46 0 45 0;
#X connect 47 0 48 0;
#X connect 48 0 49 1;
#X connect 49 0 63 0;
#X connect 50 1 8 0;
#X connect 50 1 49 0;
#X connect 52 0 53 1;
#X connect 53 0 54 0;
#X connect 54 0 3 1;
#X connect 55 0 56 0;
#X connect 56 0 53 0;
#X connect 57 0 58 0;
#X connect 59 0 57 0;
#X connect 60 0 63 1;
#X connect 61 0 60 0;
#X connect 62 0 61 0;
#X connect 63 0 66 0;
#X connect 63 0 67 0;
#X connect 64 0 62 0;
#X connect 65 0 15 0;
#X connect 66 0 51 0;
#X connect 67 0 51 0;
