#N canvas 540 41 740 698 10;
#X obj 160 406 + 10;
#X obj 160 437 pack f f, f 15;
#X obj 160 467 noteout 10;
#X obj 184 273 t b f;
#X obj 181 381 * 10;
#X obj 181 358 \$1;
#X obj 181 335 loadbang;
#X obj 160 311 \$2;
#X obj 181 32 inlet;
#X obj 241 333 i;
#X obj 243 285 / 2;
#X obj 182 59 * 255;
#X obj 184 247 line 0 100;
#X msg 184 215 \$1 500;
#X connect 0 0 1 0;
#X connect 1 0 2 0;
#X connect 3 0 7 0;
#X connect 3 1 10 0;
#X connect 4 0 0 1;
#X connect 5 0 4 0;
#X connect 6 0 5 0;
#X connect 7 0 0 0;
#X connect 8 0 11 0;
#X connect 9 0 1 1;
#X connect 10 0 9 0;
#X connect 11 0 13 0;
#X connect 12 0 3 0;
#X connect 13 0 12 0;
