#N canvas 213 98 773 293 10;
#X obj 156 177 mb-emulation-unit \$1 1;
#X obj 304 181 mb-emulation-unit \$1 2;
#X obj 450 180 mb-emulation-unit \$1 3;
#X obj 158 79 inlet;
#X obj 158 130 unpack f f f;
#X obj 304 33 route \$1;
#X obj 305 7 r emulation;
#X obj 157 109 spigot;
#X obj 202 80 tgl 15 0 empty empty empty 17 7 0 10 -262144 -1 -1 0
1;
#X obj 200 51 r toggleEmu;
#X connect 3 0 7 0;
#X connect 4 0 0 0;
#X connect 4 1 1 0;
#X connect 4 2 2 0;
#X connect 5 0 7 0;
#X connect 6 0 5 0;
#X connect 7 0 4 0;
#X connect 8 0 7 1;
#X connect 9 0 8 0;
