#N canvas 85 86 532 545 10;
#X obj 106 126 +;
#X obj 149 50 \$1;
#X obj 149 71 / 8;
#X obj 146 95 * 255;
#X obj 116 158 % 255;
#X obj 101 48 inlet;
#X obj 68 374 list prepend \$1;
#X obj 70 407 send emulation;
#X obj 148 23 loadbang;
#X obj 103 96 * 255;
#X obj 13 172 expr 255 - $f1;
#X obj 66 314 pack f f;
#X obj 52 264 / 255;
#X msg 69 338 \$1 0 \$2;
#X obj 113 282 + 50;
#X obj 107 226 / 205;
#X obj 54 230 / 12;
#X obj 274 146 inlet;
#X msg 140 334 \$1 \$1 \$1;
#X obj 267 222 sel 0;
#X obj 263 287 line 0 200;
#X msg 265 251 \$1 2000;
#X connect 0 0 4 0;
#X connect 1 0 2 0;
#X connect 2 0 3 0;
#X connect 3 0 0 1;
#X connect 4 0 10 0;
#X connect 4 0 15 0;
#X connect 5 0 9 0;
#X connect 6 0 7 0;
#X connect 8 0 1 0;
#X connect 9 0 0 0;
#X connect 10 0 16 0;
#X connect 11 0 13 0;
#X connect 12 0 11 0;
#X connect 13 0 6 0;
#X connect 14 0 11 1;
#X connect 15 0 14 0;
#X connect 16 0 12 0;
#X connect 17 0 19 0;
#X connect 18 0 6 0;
#X connect 19 0 21 0;
#X connect 20 0 18 0;
#X connect 21 0 20 0;
