#N canvas 746 62 534 445 10;
#X obj 257 90 list store \$1;
#X text 353 91 unit number;
#X obj 71 34 inlet;
#X obj 71 63 route \$1;
#X obj 78 337 list trim;
#X obj 78 219 text get rgbVals;
#X floatatom 90 159 5 0 0 0 - - -;
#X obj 192 231 print \$1;
#X obj 207 254 print \$1-test;
#X obj 78 363 send emulation;
#X obj 77 313 list prepend \$1;
#X obj 71 113 unpack;
#X obj 135 133 > 0;
#X obj 76 182 f;
#X msg 71 88 \$2 \$1;
#X obj 138 158 sel 1 0;
#X msg 182 187 0 0 0;
#X obj 104 266 print evaluation;
#X obj 262 61 loadbang;
#X obj 184 117 +;
#X obj 241 169 +;
#X obj 257 119 * 12;
#X obj 233 25 stripnote;
#X floatatom 242 198 5 0 0 0 - - -;
#X obj 323 71 bng 15 250 50 0 empty empty empty 17 7 0 10 -262144 -1
-1;
#X obj 296 221 speedlim 200;
#X obj 307 250 send lightOut;
#X connect 0 0 21 0;
#X connect 2 0 3 0;
#X connect 3 0 14 0;
#X connect 3 0 22 0;
#X connect 4 0 9 0;
#X connect 5 0 8 0;
#X connect 5 0 10 0;
#X connect 5 0 17 0;
#X connect 6 0 7 0;
#X connect 6 0 13 1;
#X connect 10 0 4 0;
#X connect 11 0 12 0;
#X connect 11 1 6 0;
#X connect 12 0 15 0;
#X connect 13 0 5 0;
#X connect 14 0 11 0;
#X connect 15 0 13 0;
#X connect 15 1 16 0;
#X connect 16 0 10 0;
#X connect 18 0 0 0;
#X connect 20 0 23 0;
#X connect 21 0 20 1;
#X connect 22 0 20 0;
#X connect 23 0 25 0;
#X connect 24 0 0 0;
#X connect 25 0 26 0;
