#N canvas 597 203 742 493 10;
#X obj 240 24 list store \$1;
#X text 336 25 unit number;
#X obj 71 34 inlet;
#X obj 71 63 route \$1;
#X obj 74 205 list trim;
#X obj 74 231 send emulation;
#X obj 73 181 list prepend \$1;
#X msg 72 142 \$1 \$1 255;
#X obj 71 114 line 0 200;
#X msg 71 88 \$2;
#X obj 278 95 delay 300;
#X obj 279 63 t b b;
#X obj 302 188 delay 300;
#X obj 272 129 t b b;
#X text 427 236 translate values to white coming from purple;
#X msg 345 98 11;
#X msg 301 231 8;
#X msg 255 257 11;
#X obj 255 302 +;
#X obj 310 301 loadbang;
#X obj 310 322 \$1;
#X obj 310 343 * 12;
#X obj 189 188 delay 1000;
#X msg 189 225 9;
#X obj 260 390 s lightOut;
#X connect 2 0 3 0;
#X connect 3 0 9 0;
#X connect 3 0 11 0;
#X connect 4 0 5 0;
#X connect 6 0 4 0;
#X connect 7 0 6 0;
#X connect 8 0 7 0;
#X connect 9 0 8 0;
#X connect 10 0 13 0;
#X connect 11 0 10 0;
#X connect 11 1 15 0;
#X connect 12 0 16 0;
#X connect 13 0 17 0;
#X connect 13 0 22 0;
#X connect 13 1 12 0;
#X connect 15 0 18 0;
#X connect 16 0 18 0;
#X connect 17 0 18 0;
#X connect 18 0 24 0;
#X connect 19 0 20 0;
#X connect 20 0 21 0;
#X connect 21 0 18 1;
#X connect 22 0 23 0;
#X connect 23 0 18 0;
