#N canvas 85 86 532 545 10;
#X obj 106 126 +;
#X obj 149 50 \$1;
#X obj 149 71 / 8;
#X obj 146 95 * 255;
#X obj 116 158 % 255;
#X obj 101 48 inlet;
#X obj 68 374 list prepend \$1;
#X obj 70 407 send emulation;
#X obj 148 23 loadbang;
#X obj 103 96 * 255;
#X obj 54 197 expr 255 - $f1;
#X obj 66 314 pack f f;
#X obj 52 264 / 255;
#X obj 188 205 inlet;
#X msg 183 331 \$1 \$1 \$1;
#X obj 186 239 sel 0;
#X obj 182 304 line 0 200;
#X msg 184 268 \$1 2000;
#X msg 69 338 \$1 \$2 0;
#X obj 54 230 * 1;
#X obj 98 270 expr 1 - $f1;
#X connect 0 0 4 0;
#X connect 1 0 2 0;
#X connect 2 0 3 0;
#X connect 3 0 0 1;
#X connect 4 0 10 0;
#X connect 5 0 9 0;
#X connect 6 0 7 0;
#X connect 8 0 1 0;
#X connect 9 0 0 0;
#X connect 10 0 19 0;
#X connect 11 0 18 0;
#X connect 12 0 11 0;
#X connect 12 0 20 0;
#X connect 13 0 15 0;
#X connect 14 0 6 0;
#X connect 15 0 17 0;
#X connect 16 0 14 0;
#X connect 17 0 16 0;
#X connect 18 0 6 0;
#X connect 19 0 12 0;
#X connect 20 0 11 1;
